# File generated by ImageToStl.com - Free Image and 3D model conversion tools

o obj1
v 0.00698924 -0.00084576 -0.00129878
v 0.00626117 -0.00110352 -0.00140575
v 0.00698924 0.00084576 -0.00129878
v 0.0034765 -0.002 -0.00181488
v 0.0029035 -0.002 -0.00189906
v 0.0029035 -0 -0.00189906
v 0.00404772 -0.00195811 -0.00173095
v 0.00626117 0.00110352 -0.00140575
v 0.00514257 -0.00162826 -0.00157009
v 0.00460699 -0.00183333 -0.00164878
v 0.0029035 0.002 -0.00189906
v 0.0034765 0.002 -0.00181488
v 0.00404772 0.00195811 -0.00173095
v 0.00775295 -0.00073566 -0.00118657
v 0.00775295 0.00073566 -0.00118657
v 0.01358077 -0.00047599 -0.00033033
v 0.01358077 0.00047599 -0.00033033
v 0.01377332 0.00041664 -0.00030204
v 0.00460699 0.00183333 -0.00164878
v 0.00514257 0.00162826 -0.00157009
v 0.01391262 -0.000271 -0.00028158
v 0.01377332 -0.00041664 -0.00030204
v 0.01396335 -7.6E-05 -0.00027412
v 0.01396335 7.6E-05 -0.00027412
v 0.01391262 0.000271 -0.00028158
v 0.0029392 0.002 0.0018421
v 0.00070788 0.002 9.015E-05
v 0.00058058 0.002 0.0004258
v -0.00232631 0.002 0.00264692
v -0.0003852 0.002 0.00066384
v -0.00065389 0.002 0.0004258
v 0.00066461 0.002 -0.00026621
v 0.00046069 0.002 -0.00056164
v 0.00014283 0.002 -0.00072846
v -0.0016675 0.002 0.00309657
v -0.000924 0.002 0.0033854
v -3.666E-05 0.002 0.00074975
v -0.00078119 0.002 9.015E-05
v -0.00325913 0.002 0.00136565
v -0.00286619 0.002 0.00205978
v -0.00201685 0.002 -0.00288622
v -0.000534 0.002 -0.00056164
v -0.00021614 0.002 -0.00072846
v -0.00013441 0.002 0.00349838
v 0.00066025 0.002 0.00342966
v 0.00031189 0.002 0.00066384
v -0.00073792 0.002 -0.00026621
v -0.00353119 0.002 -0.00019569
v -0.0034847 0.002 0.00060058
v -0.00261884 0.002 -0.00236295
v -0.00308672 0.002 -0.00171696
v -0.0033962 0.002 -0.00098182
v 0.00239724 0.002 -0.00251543
v -3.666E-05 0.002 -0.00075025
v 0.00141872 0.002 0.00318281
v 0.0021016 0.002 0.00277064
v 0.00267343 0.002 0.00221457
v 0.00176458 0.002 -0.00300118
v 0.00103836 0.002 -0.00333107
v 0.00025632 0.002 -0.00348797
v -0.00054094 0.002 -0.00346373
v -0.00131201 0.002 -0.00325962
v 0.00321069 -0.002 -0.0013059
v 0.00334337 -0.002 -0.00090878
v -0.0003852 -0 0.00066384
v -0.0016675 -0 0.00309657
v -0.00232631 -0 0.00264692
v -0.00065389 -0 0.0004258
v -0.000924 -0 0.0033854
v -3.666E-05 -0 0.00074975
v -0.00013441 -0 0.00349838
v -0.00021614 -0 -0.00072846
v -0.000534 -0 -0.00056164
v -0.00201685 -0 -0.00288622
v -0.00073792 -0 -0.00026621
v -0.00308672 -0 -0.00171696
v -0.00261884 -0 -0.00236295
v -0.00078119 -0 9.015E-05
v -0.00353119 -0 -0.00019569
v -0.0033962 -0 -0.00098182
v -0.00286619 -0 0.00205978
v -0.00325913 -0 0.00136565
v -0.0034847 -0 0.00060058
v 0.00066025 -0 0.00342966
v 0.00031189 -0 0.00066384
v 0.00141872 -0 0.00318281
v 0.0021016 -0 0.00277064
v 0.00058058 -0 0.0004258
v 0.00267343 -0 0.00221457
v 0.00310451 -0 0.00154346
v 0.00070788 -0 9.015E-05
v 0.00337246 -0 0.00079218
v 0.00346334 -0 -2.5E-07
v 0.00066461 -0 -0.00026621
v 0.0033996 -0 -0.00066519
v 0.00046069 -0 -0.00056164
v 0.00321069 -0 -0.0013059
v 0.00014283 -0 -0.00072846
v 0.00176458 -0 -0.00300118
v 0.00239724 -0 -0.00251543
v -0.00131201 -0 -0.00325962
v -0.00054094 -0 -0.00346373
v -3.666E-05 -0 -0.00075025
v 0.00025632 -0 -0.00348797
v 0.00103836 -0 -0.00333107
v 0.00326013 0.00199392 0.00117498
v 0.00310451 0.0019982 0.00154346
v 0.00337246 0.00199046 0.00079218
v 0.00344041 0.00198975 0.0003998
v 0.00346334 0.00199213 -2.5E-07
v 0.01396335 -7.425E-05 -2.5E-07
v 0.01396335 7.425E-05 -2.5E-07
v 0.00379344 0.00195811 -2.5E-07
v 0.01358077 0.00047388 -2.5E-07
v 0.00757866 0.00073566 -2.5E-07
v 0.00757866 -0.00073566 -2.5E-07
v 0.00679846 -0.00084576 -2.5E-07
v 0.00346334 -0.00199213 -2.5E-07
v 0.00379344 -0.00195811 -2.5E-07
v 0.01391262 0.0002692 -2.5E-07
v 0.01377332 0.00041471 -2.5E-07
v 0.00679846 0.00084576 -2.5E-07
v 0.00605467 0.00110352 -2.5E-07
v 0.00605467 -0.00110352 -2.5E-07
v 0.00491193 0.00162826 -2.5E-07
v 0.00436478 0.00183333 -2.5E-07
v 0.00436478 -0.00183333 -2.5E-07
v 0.00491193 -0.00162826 -2.5E-07
v 0.01377332 -0.00041471 -2.5E-07
v 0.01391262 -0.0002692 -2.5E-07
v 0.01358077 -0.00047388 -2.5E-07
v 0.00344732 -0.00199566 -0.00033481
v 0.0033996 -0.00199896 -0.00066519
v 0.00320134 0.00199803 0.00092093
vn 0.14536 -0 -0.98938
vn 0.14536 -0 -0.98938
vn 0.14536 -0 -0.98938
vn 0.14536 -0 -0.98938
vn 0.14536 -0 -0.98938
vn 0.14536 -0 -0.98938
vn 0.14536 0 -0.98938
vn 0.14536 0 -0.98938
vn 0.14536 -0 -0.98938
vn 0.14536 -0 -0.98938
vn 0.14536 -0 -0.98938
vn 0.14536 -0 -0.98938
vn 0.14536 0 -0.98938
vn 0.14536 0 -0.98938
vn 0.14536 0 -0.98938
vn 0.14536 -0 -0.98938
vn 0.14536 -0 -0.98938
vn 0.14536 0 -0.98938
vn 0.14536 -0 -0.98938
vn 0 1 0
vn -0 -1 -0
vn 0.92121 -0 0.38906
vn 0.8749 -0 0.4843
vn 0.84132 -0.01116 0.54042
vn 0.95924 -0.02281 0.28167
vn 0.94189 -0 0.33592
vn 0.98533 -0 0.17063
vn 0.99342 -0.01146 0.11394
vn 0.99836 -0 0.05724
vn 0.81402 -0 0.58084
vn 0.69716 -0 0.71691
vn 0.51674 -0 0.85614
vn 0.30948 -0 0.9509
vn 0.08615 -0 0.99628
vn -0.14165 0 0.98992
vn -0.3621 0 0.93214
vn -0.56374 0 0.82595
vn -0.73611 0 0.67687
vn -0.87024 0 0.49263
vn -0.95918 0 0.2828
vn -0.9983 0 0.05829
vn -0.98557 0 -0.16925
vn -0.92166 0 -0.38799
vn -0.80988 0 -0.58659
vn -0.65604 0 -0.75473
vn -0.46813 0 -0.88366
vn -0.2559 0 -0.9667
vn -0.03039 0 -0.99954
vn 0.19671 -0 -0.98046
vn 0.41359 -0 -0.91046
vn 0.60899 -0 -0.79318
vn 0.77275 -0 -0.6347
vn 1 -0 0
vn -0.23932 0 -0.97094
vn -0.66312 0 -0.74851
vn -0.93502 0 -0.3546
vn -0.99271 0 0.12054
vn -0.82298 0 0.56806
vn -0.46472 0 0.88546
vn -0.12054 0 0.99271
vn -0.12054 0 0.99271
vn 0.12054 -0 0.99271
vn 0.12054 -0 0.99271
vn 0.46472 -0 0.88546
vn 0.82298 -0 0.56806
vn 0.99271 -0 0.12054
vn 0.93502 -0 -0.3546
vn 0.66312 -0 -0.74851
vn 0.23932 -0 -0.97094
vn 0 -0 1
vn -0.99885 0 0.04785
vn -0.9954 -0.008 0.09542
vn -0.95915 -0.00748 0.2828
vn -0.97438 0 0.22492
vn -0.98973 0 0.14295
vn -0.88798 0 0.45988
vn -0.94847 0 0.31688
vn 0.41652 -0.90706 0.0612
vn 0.41652 -0.90706 0.0612
vn 0.04357 -0.99903 0.0064
vn 0.04357 -0.99903 0.0064
vn 0.04357 0.99903 0.0064
vn 0.04357 0.99903 0.0064
vn 0.41652 0.90706 0.0612
vn 0.41652 0.90706 0.0612
vn 0.29373 -0.95587 0.00613
vn 0.29372 -0.95587 0.00613
vn 0.72235 -0.69152 0.00443
vn 0.72235 -0.69152 0.00443
vn 0.96778 -0.25179 0.00161
vn 0.96778 -0.25179 0.00161
vn 0.96778 0.25179 0.00161
vn 0.96778 0.25179 0.00161
vn 0.72235 0.69152 0.00443
vn 0.72235 0.69152 0.00443
vn 0.29373 0.95587 0.00613
vn 0.29373 0.95587 0.00613
vn 0.32707 -0.94378 0.04805
vn 0.32707 -0.94378 0.04805
vn 0.1397 -0.98998 0.02053
vn 0.1397 -0.98998 0.02053
vn 0.10251 -0.99472 0.00558
vn 0.01126 -0.99994 0.00165
vn 0.07229 -0.99737 0.00573
vn 0.06409 -0.99794 0.00072
vn 0.09455 -0.99542 0.01389
vn 0.21327 -0.97649 0.03133
vn 0.21327 -0.97649 0.03133
vn 0.35049 -0.93515 0.05149
vn 0.35049 -0.93515 0.05149
vn 0.35049 0.93515 0.05149
vn 0.35049 0.93515 0.05149
vn 0.21327 0.97649 0.03133
vn 0.21327 0.97649 0.03133
vn 0.05438 0.99848 0.00907
vn 0.04252 0.99908 0.00635
vn 0.048 0.99883 0.00508
vn 0.04921 0.99877 0.00669
vn 0.1025 0.99462 0.01506
vn 0.07242 0.99736 0.00485
vn 0.03872 0.99924 0.00461
vn 0.01552 0.99988 0.00228
vn 0.01452 0.99989 0.002
vn 0.1397 0.98998 0.02053
vn 0.1397 0.98998 0.02053
vn 0.32707 0.94378 0.04805
vn 0.32707 0.94378 0.04805
f 1//1 2//1 3//1
f 4//2 5//2 6//2
f 4//3 6//3 7//3
f 3//1 2//1 8//1
f 8//4 2//4 9//4
f 8//5 9//5 6//5
f 6//6 9//6 10//6
f 6//7 10//7 7//7
f 11//2 12//2 6//2
f 6//8 12//8 13//8
f 1//9 3//9 14//9
f 14//9 3//9 15//9
f 14//10 15//10 16//10
f 16//10 15//10 17//10
f 16//11 17//11 18//11
f 13//12 19//12 6//12
f 6//13 19//13 20//13
f 6//14 20//14 8//14
f 21//15 22//15 23//15
f 23//16 22//16 16//16
f 23//17 16//17 24//17
f 24//18 16//18 18//18
f 24//19 18//19 25//19
f 26//20 27//20 28//20
f 29//20 30//20 31//20
f 27//20 26//20 32//20
f 32//20 26//20 12//20
f 32//20 12//20 33//20
f 33//20 12//20 11//20
f 33//20 11//20 34//20
f 29//20 35//20 30//20
f 30//20 35//20 36//20
f 30//20 36//20 37//20
f 38//20 39//20 31//20
f 31//20 39//20 40//20
f 31//20 40//20 29//20
f 41//20 42//20 43//20
f 36//20 44//20 37//20
f 37//20 44//20 45//20
f 37//20 45//20 46//20
f 47//20 48//20 38//20
f 38//20 48//20 49//20
f 38//20 49//20 39//20
f 41//20 50//20 42//20
f 42//20 50//20 51//20
f 42//20 51//20 47//20
f 47//20 51//20 52//20
f 47//20 52//20 48//20
f 53//20 43//20 11//20
f 11//20 43//20 54//20
f 11//20 54//20 34//20
f 45//20 55//20 46//20
f 46//20 55//20 56//20
f 46//20 56//20 28//20
f 28//20 56//20 57//20
f 28//20 57//20 26//20
f 53//20 58//20 43//20
f 43//20 58//20 59//20
f 43//20 59//20 60//20
f 60//20 61//20 43//20
f 43//20 61//20 62//20
f 43//20 62//20 41//20
f 5//21 4//21 63//21
f 63//21 4//21 64//21
f 65//21 66//21 67//21
f 65//21 67//21 68//21
f 66//21 65//21 69//21
f 69//21 65//21 70//21
f 69//21 70//21 71//21
f 72//21 73//21 74//21
f 75//21 76//21 73//21
f 73//21 76//21 77//21
f 73//21 77//21 74//21
f 78//21 79//21 75//21
f 75//21 79//21 80//21
f 75//21 80//21 76//21
f 67//21 81//21 68//21
f 68//21 81//21 82//21
f 68//21 82//21 78//21
f 78//21 82//21 83//21
f 78//21 83//21 79//21
f 71//21 70//21 84//21
f 84//21 70//21 85//21
f 84//21 85//21 86//21
f 86//21 85//21 87//21
f 87//21 85//21 88//21
f 87//21 88//21 89//21
f 89//21 88//21 90//21
f 90//21 88//21 91//21
f 90//21 91//21 92//21
f 92//21 91//21 93//21
f 93//21 91//21 94//21
f 93//21 94//21 95//21
f 96//21 6//21 94//21
f 94//21 6//21 97//21
f 94//21 97//21 95//21
f 98//21 99//21 96//21
f 96//21 99//21 100//21
f 96//21 100//21 6//21
f 74//21 101//21 72//21
f 72//21 101//21 102//21
f 72//21 102//21 103//21
f 103//21 102//21 104//21
f 103//21 104//21 98//21
f 98//21 104//21 105//21
f 98//21 105//21 99//21
f 106//22 107//22 90//22
f 90//23 107//23 26//23
f 90//24 26//24 89//24
f 106//25 90//25 108//25
f 108//26 90//26 92//26
f 108//27 92//27 109//27
f 109//28 92//28 93//28
f 109//29 93//29 110//29
f 26//30 57//30 89//30
f 89//31 57//31 56//31
f 89//31 56//31 87//31
f 87//32 56//32 55//32
f 87//32 55//32 86//32
f 86//33 55//33 45//33
f 86//33 45//33 84//33
f 84//34 45//34 44//34
f 84//34 44//34 71//34
f 71//35 44//35 36//35
f 71//35 36//35 69//35
f 69//36 36//36 35//36
f 69//36 35//36 66//36
f 66//37 35//37 29//37
f 66//37 29//37 67//37
f 67//38 29//38 40//38
f 67//38 40//38 81//38
f 81//39 40//39 39//39
f 81//39 39//39 82//39
f 82//40 39//40 49//40
f 82//40 49//40 83//40
f 83//41 49//41 48//41
f 83//41 48//41 79//41
f 79//42 48//42 52//42
f 79//42 52//42 80//42
f 80//43 52//43 51//43
f 80//43 51//43 76//43
f 76//44 51//44 50//44
f 76//44 50//44 77//44
f 77//45 50//45 41//45
f 77//45 41//45 74//45
f 74//46 41//46 62//46
f 74//46 62//46 101//46
f 101//47 62//47 61//47
f 101//47 61//47 102//47
f 102//48 61//48 60//48
f 102//48 60//48 104//48
f 104//49 60//49 59//49
f 104//49 59//49 105//49
f 105//50 59//50 58//50
f 105//50 58//50 99//50
f 99//51 58//51 53//51
f 99//51 53//51 100//51
f 100//52 53//52 11//52
f 100//52 11//52 6//52
f 23//53 24//53 111//53
f 111//53 24//53 112//53
f 70//54 37//54 85//54
f 85//54 37//54 46//54
f 85//55 46//55 88//55
f 88//55 46//55 28//55
f 88//56 28//56 91//56
f 91//56 28//56 27//56
f 91//57 27//57 94//57
f 94//57 27//57 32//57
f 94//58 32//58 96//58
f 96//58 32//58 33//58
f 96//59 33//59 98//59
f 98//59 33//59 34//59
f 98//60 34//60 103//60
f 103//61 34//61 54//61
f 103//62 54//62 72//62
f 72//63 54//63 43//63
f 72//64 43//64 73//64
f 73//64 43//64 42//64
f 73//65 42//65 75//65
f 75//65 42//65 47//65
f 75//66 47//66 78//66
f 78//66 47//66 38//66
f 78//67 38//67 68//67
f 68//67 38//67 31//67
f 68//68 31//68 65//68
f 65//68 31//68 30//68
f 65//69 30//69 70//69
f 70//69 30//69 37//69
f 113//70 110//70 93//70
f 114//70 115//70 116//70
f 116//70 115//70 117//70
f 93//70 118//70 119//70
f 112//70 120//70 121//70
f 115//70 122//70 117//70
f 117//70 122//70 123//70
f 117//70 123//70 124//70
f 124//70 123//70 125//70
f 124//70 125//70 93//70
f 93//70 125//70 126//70
f 93//70 126//70 113//70
f 119//70 127//70 93//70
f 93//70 127//70 128//70
f 93//70 128//70 124//70
f 129//70 130//70 131//70
f 131//70 130//70 111//70
f 131//70 111//70 116//70
f 116//70 111//70 112//70
f 116//70 112//70 114//70
f 114//70 112//70 121//70
f 118//71 93//71 132//71
f 132//72 93//72 95//72
f 97//73 64//73 95//73
f 95//74 64//74 133//74
f 95//75 133//75 132//75
f 6//76 5//76 97//76
f 97//76 5//76 63//76
f 97//77 63//77 64//77
f 124//78 128//78 2//78
f 2//79 128//79 9//79
f 14//80 16//80 116//80
f 116//81 16//81 131//81
f 115//82 114//82 15//82
f 15//83 114//83 17//83
f 125//84 123//84 20//84
f 20//85 123//85 8//85
f 131//86 16//86 22//86
f 131//87 22//87 129//87
f 129//88 22//88 21//88
f 129//89 21//89 130//89
f 130//90 21//90 23//90
f 130//91 23//91 111//91
f 112//92 24//92 25//92
f 112//93 25//93 120//93
f 120//94 25//94 18//94
f 120//95 18//95 121//95
f 121//96 18//96 17//96
f 121//97 17//97 114//97
f 124//98 2//98 1//98
f 124//99 1//99 117//99
f 117//100 1//100 14//100
f 117//101 14//101 116//101
f 119//102 118//102 132//102
f 64//103 4//103 133//103
f 133//104 4//104 7//104
f 133//105 7//105 132//105
f 132//106 7//106 119//106
f 119//107 7//107 10//107
f 119//108 10//108 127//108
f 127//109 10//109 9//109
f 127//110 9//110 128//110
f 125//111 20//111 19//111
f 125//112 19//112 126//112
f 126//113 19//113 13//113
f 126//114 13//114 113//114
f 109//115 110//115 134//115
f 107//116 106//116 134//116
f 134//117 106//117 108//117
f 134//118 108//118 109//118
f 113//119 13//119 110//119
f 110//120 13//120 12//120
f 110//121 12//121 134//121
f 134//122 12//122 26//122
f 134//123 26//123 107//123
f 115//124 15//124 3//124
f 115//125 3//125 122//125
f 122//126 3//126 8//126
f 122//127 8//127 123//127
# Vertices: 134, normals: 127, texture coordinates: 0, faces: 268

