# File generated by ImageToStl.com - Free Image and 3D model conversion tools

o obj1
v 0.00601794 -0.00350025 0.002
v 0.00996334 -0.00350025 0.002
v 0.00601794 -0.00350025 0.004
v 0.00996334 -0.00350025 0.004
v 0.00601794 0.00349975 -0.002
v 0.00996334 0.00349975 -0.002
v 0.00601794 0.00349975 -0.004
v 0.00996334 0.00349975 -0.004
v -0.00049734 0.00249975 0.00056138
v -0.00017949 0.00249975 0.00072821
v -0.00017949 -0.00250025 0.00072821
v 0 0.00249975 0.00075
v 0.00017949 -0.00250025 0.00072821
v 0.00017949 0.00249975 0.00072821
v 0.00049734 -0.00250025 0.00056138
v 0.00049734 0.00249975 0.00056138
v 0.00070126 -0.00250025 0.00026595
v 0.00070126 0.00249975 0.00026595
v 0.00074453 -0.00250025 -9.04E-05
v 0.00074453 0.00249975 -9.04E-05
v 0.00061724 -0.00250025 -0.00042605
v 0.00061724 0.00249975 -0.00042605
v 0.00034854 -0.00250025 -0.00066409
v 0.00034854 0.00249975 -0.00066409
v 0 -0.00250025 -0.00075
v 0 0.00249975 -0.00075
v -0.00034854 -0.00250025 -0.00066409
v -0.00034854 0.00249975 -0.00066409
v -0.00061724 -0.00250025 -0.00042605
v -0.00061724 0.00249975 -0.00042605
v -0.00074453 -0.00250025 -9.04E-05
v -0.00074453 0.00249975 -9.04E-05
v -0.00070126 -0.00250025 0.00026595
v -0.00070126 0.00249975 0.00026595
v -0.00049734 -0.00250025 0.00056138
v 0.00289511 -0.00276673 0.004
v 0.00289511 0.00276623 0.004
v 0.00232986 0.00257571 0.0037224
v -0.00102013 0.00249975 0.00207719
v -0.00102013 -0.00250025 0.00207719
v 0.00165904 0.00249975 0.00339295
v 0.00165904 -0.00250025 0.00339295
v 0.00232986 -0.00257621 0.0037224
v -0.00102013 0.00249975 -0.00207719
v -0.00102013 -0.00250025 -0.00207719
v -0.00155199 -0.00250025 -0.00171659
v -0.00155199 0.00249975 -0.00171659
v -0.0019642 -0.00250025 -0.00122365
v -0.0019642 0.00249975 -0.00122365
v -0.00222496 -0.00250025 -0.00063636
v -0.00222496 0.00249975 -0.00063636
v -0.00231417 -0.00250025 -0
v -0.00231417 0.00249975 0
v -0.00222496 -0.00250025 0.00063636
v -0.00222496 0.00249975 0.00063636
v -0.0019642 -0.00250025 0.00122365
v -0.0019642 0.00249975 0.00122365
v -0.00155199 -0.00250025 0.00171659
v -0.00155199 0.00249975 0.00171659
v 0.00289511 0.00276623 -0.004
v 0.00289511 -0.00276673 -0.004
v 0.00232986 -0.00257621 -0.0037224
v 0.00165904 -0.00250025 -0.00339295
v 0.00165904 0.00249975 -0.00339295
v 0.00232986 0.00257571 -0.0037224
v 0.01074217 -0.0034125 0.002
v 0.01074217 -0.0034125 0.004
v 0.01148194 -0.00315364 0.002
v 0.01148194 -0.00315364 0.004
v 0.01214556 -0.00273666 0.002
v 0.01214556 -0.00273666 0.004
v 0.01269975 -0.00218247 0.002
v 0.01269975 -0.00218247 0.004
v 0.01311674 -0.00151885 0.002
v 0.01311674 -0.00151885 0.004
v 0.01337559 -0.00077908 0.002
v 0.01337559 -0.00077908 0.004
v 0.01346334 -2.5E-07 0.002
v 0.01346334 -2.5E-07 0.004
v 0.01337559 0.00077857 0.002
v 0.01337559 0.00077857 0.004
v 0.01311674 0.00151834 0.002
v 0.01311674 0.00151834 0.004
v 0.01269975 0.00218196 0.002
v 0.01269975 0.00218196 0.004
v 0.01214556 0.00273616 0.002
v 0.01214556 0.00273616 0.004
v 0.01148194 0.00315314 0.002
v 0.01148194 0.00315314 0.004
v 0.01074217 0.003412 0.002
v 0.01074217 0.003412 0.004
v 0.00996334 0.00349975 0.002
v 0.00996334 0.00349975 0.004
v 0.01038939 -0.00061749 0.004
v 0.01005375 -0.00074478 0.004
v 0.00296671 -0.00280025 0.004
v 0.00394472 -0.00318619 0.004
v 0.00923514 -0.00017974 0.004
v 0.0049695 -0.00342129 0.004
v 0.00940196 -0.00049759 0.004
v 0.00969739 -0.00070151 0.004
v 0.00394472 0.00318569 0.004
v 0.00296671 0.00279975 0.004
v 0.00923514 0.00017923 0.004
v 0.01038939 0.00061699 0.004
v 0.01062744 0.00034829 0.004
v 0.01071334 -2.5E-07 0.004
v 0.01062744 -0.00034879 0.004
v 0.01005375 0.00074428 0.004
v 0.00969739 0.00070101 0.004
v 0.00940196 0.00049709 0.004
v 0.00601794 0.00349975 0.004
v 0.0049695 0.00342079 0.004
v 0.01148194 0.00315314 -0.004
v 0.01038939 0.00061699 -0.004
v 0.01005375 0.00074428 -0.004
v 0.01337559 0.00077857 -0.004
v 0.01071334 -2.5E-07 -0.004
v 0.01062744 0.00034829 -0.004
v 0.01214556 0.00273616 -0.004
v 0.01269975 0.00218196 -0.004
v 0.01311674 0.00151834 -0.004
v 0.01038939 -0.00061749 -0.004
v 0.01062744 -0.00034879 -0.004
v 0.01269975 -0.00218247 -0.004
v 0.01346334 -2.5E-07 -0.004
v 0.01337559 -0.00077908 -0.004
v 0.01311674 -0.00151884 -0.004
v 0.00394472 -0.00318619 -0.004
v 0.00296671 -0.00280025 -0.004
v 0.00923514 -0.00017974 -0.004
v 0.00921335 -2.5E-07 -0.004
v 0.00923514 0.00017923 -0.004
v 0.00296671 0.00279975 -0.004
v 0.01214556 -0.00273666 -0.004
v 0.01148194 -0.00315364 -0.004
v 0.01005375 -0.00074478 -0.004
v 0.01074217 -0.0034125 -0.004
v 0.00969739 -0.00070151 -0.004
v 0.00996334 -0.00350025 -0.004
v 0.00940196 -0.00049759 -0.004
v 0.00601794 -0.00350025 -0.004
v 0.0049695 -0.00342129 -0.004
v 0.00394472 0.00318569 -0.004
v 0.0049695 0.00342079 -0.004
v 0.00940196 0.00049709 -0.004
v 0.00969739 0.00070101 -0.004
v 0.01074217 0.003412 -0.004
v 0.00601794 -0.00350025 -0.002
v 0.00996334 -0.00350025 -0.002
v 0.00601794 0.00349975 0.002
v 0.01074217 -0.0034125 -0.002
v 0.01148194 -0.00315364 -0.002
v 0.01214556 -0.00273666 -0.002
v 0.01269975 -0.00218247 -0.002
v 0.01311674 -0.00151884 -0.002
v 0.01337559 -0.00077908 -0.002
v 0.01346334 -2.5E-07 -0.002
v 0.01337559 0.00077857 -0.002
v 0.01311674 0.00151834 -0.002
v 0.01269975 0.00218196 -0.002
v 0.01214556 0.00273616 -0.002
v 0.01148194 0.00315314 -0.002
v 0.01074217 0.003412 -0.002
v 0.00596335 0.00349953 0.002
v 0.00596335 -0.00350004 0.002
v 0.00596335 0.00349953 -0.002
v 0.00596335 -0.00350004 -0.002
v 0.01038939 -0.00061749 -0.002
v 0.01005375 -0.00074478 -0.002
v 0.01038939 0.00061699 -0.002
v 0.01062744 0.00034829 -0.002
v 0.01005375 0.00074428 -0.002
v 0.00969739 0.00070101 -0.002
v 0.00940196 0.00049709 -0.002
v 0.00923514 0.00017923 -0.002
v 0.00923514 -0.00017974 -0.002
v 0.00940196 -0.00049759 -0.002
v 0.00969739 -0.00070151 -0.002
v 0.01071334 -2.5E-07 -0.002
v 0.01062744 -0.00034879 -0.002
v 0.01071334 -2.5E-07 0.002
v 0.01062744 0.00034829 0.002
v 0.01038939 0.00061699 0.002
v 0.01005375 0.00074428 0.002
v 0.01038939 -0.00061749 0.002
v 0.01062744 -0.00034879 0.002
v 0.01005375 -0.00074478 0.002
v 0.00969739 -0.00070151 0.002
v 0.00940196 -0.00049759 0.002
v 0.00923514 -0.00017974 0.002
v 0.00923514 0.00017923 0.002
v 0.00940196 0.00049709 0.002
v 0.00969739 0.00070101 0.002
vn -0 -1 -0
vn 0 1 0
vn 0.46472 0 -0.88546
vn 0.12054 0 -0.99271
vn 0 0.00436 -0.99999
vn -0.12054 0 -0.99271
vn -0.46472 0 -0.88546
vn -0.82298 0 -0.56806
vn -0.99271 0 -0.12054
vn -0.93502 -0 0.3546
vn -0.66312 -0 0.74851
vn -0.23932 -0 0.97094
vn 0.23932 -0 0.97094
vn 0.66312 -0 0.74851
vn 0.93502 -0 0.3546
vn 0.99271 0 -0.12054
vn 0.82298 0 -0.56806
vn -0.44082 -0 0.8976
vn -0.44082 -0 0.8976
vn -0.44082 -0 0.8976
vn -0.56117 0 -0.8277
vn -0.76714 0 -0.64148
vn -0.91396 0 -0.4058
vn -0.99032 0 -0.13884
vn -0.99032 -0 0.13884
vn -0.91396 -0 0.4058
vn -0.76714 -0 0.64148
vn -0.56117 -0 0.8277
vn -0.44082 0 -0.8976
vn -0.44082 0 -0.8976
vn -0.44082 0 -0.8976
vn 0.11196 -0.99371 -0
vn 0.33028 -0.94388 -0
vn 0.53203 -0.84672 -0
vn 0.70711 -0.70711 -0
vn 0.84672 -0.53203 -0
vn 0.94388 -0.33028 -0
vn 0.99371 -0.11196 -0
vn 0.99371 0.11196 0
vn 0.94388 0.33028 0
vn 0.84672 0.53203 0
vn 0.70711 0.70711 0
vn 0.53203 0.84672 0
vn 0.33028 0.94388 0
vn 0.11196 0.99371 0
vn -0 -0 1
vn 0 0 -1
vn 1 -0 0
vn -0.97094 0.23932 0
vn -0.74851 0.66312 0
vn -0.3546 0.93502 0
vn 0.12054 0.99271 0
vn 0.56807 0.82298 0
vn 0.88546 0.46472 0
vn 0.88546 -0.46473 -0
vn 0.56806 -0.82298 -0
vn 0.12054 -0.99271 -0
vn -0.35461 -0.93502 -0
vn -0.74851 -0.66312 -0
vn -0.97094 -0.23932 -0
vn 0.99271 0.12053 0
vn 0.99994 0 -0.0109
vn 0.99271 -0.12053 -0
vn -0.424 -0.90566 -0
vn -0.3194 -0.94762 -0
vn -0.11252 -0.99365 -0
vn -0.42399 0.90567 0
vn -0.3194 0.94762 0
vn -0.11252 0.99365 0
vn -0.0751 0.99718 0
vn -0.0039 0.99929 0.03741
vn -0.0039 0.99999 0
vn -0.0751 0.99717 -0.00194
vn -0.07899 0.99688 0
vn -0.22361 0.97468 0
vn -0.36707 0.93019 0
vn -0.0751 -0.99718 -0
vn -0.0039 -0.99929 -0.03741
vn -0.0039 -0.99999 -0
vn -0.0751 -0.99717 0.00194
vn -0.07899 -0.99688 -0
vn -0.22361 -0.97468 -0
vn -0.36707 -0.93019 -0
f 1//1 2//1 3//1
f 3//1 2//1 4//1
f 5//2 6//2 7//2
f 7//2 6//2 8//2
f 9//3 10//3 11//3
f 11//4 10//4 12//4
f 11//5 12//5 13//5
f 13//6 12//6 14//6
f 13//7 14//7 15//7
f 15//7 14//7 16//7
f 15//8 16//8 17//8
f 17//8 16//8 18//8
f 17//9 18//9 19//9
f 19//9 18//9 20//9
f 19//10 20//10 21//10
f 21//10 20//10 22//10
f 21//11 22//11 23//11
f 23//11 22//11 24//11
f 23//12 24//12 25//12
f 25//12 24//12 26//12
f 25//13 26//13 27//13
f 27//13 26//13 28//13
f 27//14 28//14 29//14
f 29//14 28//14 30//14
f 29//15 30//15 31//15
f 31//15 30//15 32//15
f 31//16 32//16 33//16
f 33//16 32//16 34//16
f 33//17 34//17 35//17
f 35//17 34//17 9//17
f 35//3 9//3 11//3
f 36//18 37//18 38//18
f 39//19 40//19 41//19
f 41//19 40//19 42//19
f 41//20 42//20 38//20
f 38//20 42//20 43//20
f 38//18 43//18 36//18
f 44//21 45//21 46//21
f 44//21 46//21 47//21
f 47//22 46//22 48//22
f 47//22 48//22 49//22
f 49//23 48//23 50//23
f 49//23 50//23 51//23
f 51//24 50//24 52//24
f 51//24 52//24 53//24
f 53//25 52//25 54//25
f 53//25 54//25 55//25
f 55//26 54//26 56//26
f 55//26 56//26 57//26
f 57//27 56//27 58//27
f 57//27 58//27 59//27
f 59//28 58//28 40//28
f 59//28 40//28 39//28
f 60//29 61//29 62//29
f 45//30 44//30 63//30
f 63//30 44//30 64//30
f 63//31 64//31 62//31
f 62//31 64//31 65//31
f 62//29 65//29 60//29
f 4//32 2//32 66//32
f 4//32 66//32 67//32
f 67//33 66//33 68//33
f 67//33 68//33 69//33
f 69//34 68//34 70//34
f 69//34 70//34 71//34
f 71//35 70//35 72//35
f 71//35 72//35 73//35
f 73//36 72//36 74//36
f 73//36 74//36 75//36
f 75//37 74//37 76//37
f 75//37 76//37 77//37
f 77//38 76//38 78//38
f 77//38 78//38 79//38
f 79//39 78//39 80//39
f 79//39 80//39 81//39
f 81//40 80//40 82//40
f 81//40 82//40 83//40
f 83//41 82//41 84//41
f 83//41 84//41 85//41
f 85//42 84//42 86//42
f 85//42 86//42 87//42
f 87//43 86//43 88//43
f 87//43 88//43 89//43
f 89//44 88//44 90//44
f 89//44 90//44 91//44
f 91//45 90//45 92//45
f 91//45 92//45 93//45
f 69//46 94//46 95//46
f 96//46 97//46 98//46
f 98//46 97//46 99//46
f 98//46 99//46 100//46
f 100//46 99//46 3//46
f 100//46 3//46 101//46
f 101//46 3//46 4//46
f 101//46 4//46 95//46
f 95//46 4//46 67//46
f 95//46 67//46 69//46
f 102//46 103//46 104//46
f 104//46 103//46 37//46
f 104//46 37//46 98//46
f 98//46 37//46 36//46
f 98//46 36//46 96//46
f 105//46 106//46 85//46
f 107//46 81//46 106//46
f 106//46 81//46 83//46
f 106//46 83//46 85//46
f 108//46 77//46 107//46
f 107//46 77//46 79//46
f 107//46 79//46 81//46
f 69//46 71//46 94//46
f 94//46 71//46 73//46
f 94//46 73//46 108//46
f 108//46 73//46 75//46
f 108//46 75//46 77//46
f 85//46 87//46 105//46
f 105//46 87//46 89//46
f 105//46 89//46 109//46
f 109//46 89//46 91//46
f 109//46 91//46 110//46
f 110//46 91//46 93//46
f 110//46 93//46 111//46
f 111//46 93//46 112//46
f 111//46 112//46 104//46
f 104//46 112//46 113//46
f 104//46 113//46 102//46
f 114//47 115//47 116//47
f 117//47 118//47 119//47
f 114//47 120//47 115//47
f 115//47 120//47 121//47
f 115//47 121//47 119//47
f 119//47 121//47 122//47
f 119//47 122//47 117//47
f 123//47 124//47 125//47
f 117//47 126//47 118//47
f 118//47 126//47 127//47
f 118//47 127//47 124//47
f 124//47 127//47 128//47
f 124//47 128//47 125//47
f 129//47 130//47 131//47
f 131//47 130//47 61//47
f 131//47 61//47 132//47
f 132//47 61//47 60//47
f 132//47 60//47 133//47
f 133//47 60//47 134//47
f 125//47 135//47 123//47
f 123//47 135//47 136//47
f 123//47 136//47 137//47
f 137//47 136//47 138//47
f 137//47 138//47 139//47
f 139//47 138//47 140//47
f 139//47 140//47 141//47
f 141//47 140//47 142//47
f 141//47 142//47 131//47
f 131//47 142//47 143//47
f 131//47 143//47 129//47
f 134//47 144//47 133//47
f 133//47 144//47 145//47
f 133//47 145//47 146//47
f 146//47 145//47 7//47
f 146//47 7//47 147//47
f 147//47 7//47 8//47
f 147//47 8//47 116//47
f 116//47 8//47 148//47
f 116//47 148//47 114//47
f 142//1 140//1 149//1
f 149//1 140//1 150//1
f 112//2 93//2 151//2
f 151//2 93//2 92//2
f 150//32 140//32 138//32
f 150//32 138//32 152//32
f 152//33 138//33 136//33
f 152//33 136//33 153//33
f 153//34 136//34 135//34
f 153//34 135//34 154//34
f 154//35 135//35 125//35
f 154//35 125//35 155//35
f 155//36 125//36 128//36
f 155//36 128//36 156//36
f 156//37 128//37 127//37
f 156//37 127//37 157//37
f 157//38 127//38 126//38
f 157//38 126//38 158//38
f 158//39 126//39 117//39
f 158//39 117//39 159//39
f 159//40 117//40 122//40
f 159//40 122//40 160//40
f 160//41 122//41 121//41
f 160//41 121//41 161//41
f 161//42 121//42 120//42
f 161//42 120//42 162//42
f 162//43 120//43 114//43
f 162//43 114//43 163//43
f 163//44 114//44 148//44
f 163//44 148//44 164//44
f 164//45 148//45 8//45
f 164//45 8//45 6//45
f 165//48 166//48 167//48
f 167//48 166//48 168//48
f 153//46 169//46 170//46
f 171//46 172//46 161//46
f 161//46 162//46 171//46
f 171//46 162//46 163//46
f 171//46 163//46 173//46
f 173//46 163//46 164//46
f 173//46 164//46 174//46
f 174//46 164//46 6//46
f 174//46 6//46 175//46
f 175//46 6//46 5//46
f 175//46 5//46 176//46
f 176//46 5//46 167//46
f 176//46 167//46 177//46
f 177//46 167//46 168//46
f 177//46 168//46 178//46
f 178//46 168//46 149//46
f 178//46 149//46 179//46
f 179//46 149//46 150//46
f 179//46 150//46 170//46
f 170//46 150//46 152//46
f 170//46 152//46 153//46
f 180//46 159//46 172//46
f 172//46 159//46 160//46
f 172//46 160//46 161//46
f 181//46 157//46 180//46
f 180//46 157//46 158//46
f 180//46 158//46 159//46
f 153//46 154//46 169//46
f 169//46 154//46 155//46
f 169//46 155//46 181//46
f 181//46 155//46 156//46
f 181//46 156//46 157//46
f 80//47 182//47 183//47
f 184//47 84//47 183//47
f 183//47 84//47 82//47
f 183//47 82//47 80//47
f 185//47 88//47 184//47
f 184//47 88//47 86//47
f 184//47 86//47 84//47
f 186//47 187//47 72//47
f 80//47 78//47 182//47
f 182//47 78//47 76//47
f 182//47 76//47 187//47
f 187//47 76//47 74//47
f 187//47 74//47 72//47
f 72//47 70//47 186//47
f 186//47 70//47 68//47
f 186//47 68//47 188//47
f 188//47 68//47 66//47
f 188//47 66//47 189//47
f 189//47 66//47 2//47
f 189//47 2//47 190//47
f 190//47 2//47 1//47
f 190//47 1//47 191//47
f 191//47 1//47 166//47
f 191//47 166//47 192//47
f 192//47 166//47 165//47
f 192//47 165//47 193//47
f 193//47 165//47 151//47
f 193//47 151//47 194//47
f 194//47 151//47 92//47
f 194//47 92//47 185//47
f 185//47 92//47 90//47
f 185//47 90//47 88//47
f 107//49 182//49 108//49
f 108//49 182//49 187//49
f 108//50 187//50 94//50
f 94//50 187//50 186//50
f 94//51 186//51 95//51
f 95//51 186//51 188//51
f 95//52 188//52 101//52
f 101//52 188//52 189//52
f 101//53 189//53 100//53
f 100//53 189//53 190//53
f 100//54 190//54 98//54
f 98//54 190//54 191//54
f 98//48 191//48 104//48
f 104//48 191//48 192//48
f 104//55 192//55 111//55
f 111//55 192//55 193//55
f 111//56 193//56 110//56
f 110//56 193//56 194//56
f 110//57 194//57 109//57
f 109//57 194//57 185//57
f 109//58 185//58 105//58
f 105//58 185//58 184//58
f 105//59 184//59 106//59
f 106//59 184//59 183//59
f 106//60 183//60 107//60
f 107//60 183//60 182//60
f 141//54 131//54 177//54
f 177//61 131//61 132//61
f 177//62 132//62 176//62
f 176//63 132//63 133//63
f 176//55 133//55 175//55
f 175//55 133//55 146//55
f 175//56 146//56 174//56
f 174//56 146//56 147//56
f 174//57 147//57 173//57
f 173//57 147//57 116//57
f 173//58 116//58 171//58
f 171//58 116//58 115//58
f 171//59 115//59 172//59
f 172//59 115//59 119//59
f 172//60 119//60 180//60
f 180//60 119//60 118//60
f 180//49 118//49 181//49
f 181//49 118//49 124//49
f 181//50 124//50 169//50
f 169//50 124//50 123//50
f 169//51 123//51 170//51
f 170//51 123//51 137//51
f 170//52 137//52 179//52
f 179//52 137//52 139//52
f 179//53 139//53 178//53
f 178//53 139//53 141//53
f 178//54 141//54 177//54
f 31//1 33//1 54//1
f 29//1 46//1 27//1
f 27//1 46//1 45//1
f 27//1 45//1 25//1
f 25//1 45//1 63//1
f 25//1 63//1 23//1
f 54//1 33//1 56//1
f 56//1 33//1 35//1
f 56//1 35//1 58//1
f 54//1 52//1 31//1
f 31//1 52//1 50//1
f 31//1 50//1 29//1
f 29//1 50//1 48//1
f 29//1 48//1 46//1
f 58//1 35//1 40//1
f 40//1 35//1 11//1
f 40//1 11//1 42//1
f 42//1 11//1 13//1
f 42//1 13//1 15//1
f 15//1 17//1 42//1
f 42//1 17//1 19//1
f 42//1 19//1 63//1
f 63//1 19//1 21//1
f 63//1 21//1 23//1
f 44//2 47//2 28//2
f 28//2 47//2 30//2
f 44//2 28//2 64//2
f 64//2 28//2 26//2
f 64//2 26//2 24//2
f 47//2 49//2 30//2
f 30//2 49//2 51//2
f 30//2 51//2 32//2
f 32//2 51//2 53//2
f 32//2 53//2 34//2
f 24//2 22//2 64//2
f 64//2 22//2 20//2
f 64//2 20//2 41//2
f 41//2 20//2 18//2
f 41//2 18//2 16//2
f 53//2 55//2 34//2
f 34//2 55//2 57//2
f 34//2 57//2 9//2
f 9//2 57//2 59//2
f 9//2 59//2 10//2
f 10//2 59//2 39//2
f 10//2 39//2 12//2
f 12//2 39//2 41//2
f 12//2 41//2 14//2
f 14//2 41//2 16//2
f 130//64 96//64 61//64
f 61//64 96//64 36//64
f 61//65 36//65 62//65
f 36//65 43//65 62//65
f 62//66 43//66 42//66
f 62//66 42//66 63//66
f 103//67 134//67 37//67
f 37//67 134//67 60//67
f 37//68 60//68 38//68
f 60//68 65//68 38//68
f 38//69 65//69 64//69
f 38//69 64//69 41//69
f 112//70 151//70 113//70
f 113//71 151//71 165//71
f 5//72 7//72 167//72
f 167//73 7//73 145//73
f 167//74 145//74 165//74
f 165//74 145//74 113//74
f 113//75 145//75 144//75
f 113//75 144//75 102//75
f 102//76 144//76 134//76
f 102//76 134//76 103//76
f 142//77 149//77 143//77
f 143//78 149//78 168//78
f 1//79 3//79 166//79
f 166//80 3//80 99//80
f 166//81 99//81 168//81
f 168//81 99//81 143//81
f 143//82 99//82 97//82
f 143//82 97//82 129//82
f 129//83 97//83 96//83
f 129//83 96//83 130//83
# Vertices: 194, normals: 83, texture coordinates: 0, faces: 396

