# File generated by ImageToStl.com - Free Image and 3D model conversion tools

o obj1
v 0.01674532 0.04764 0.03071075
v 0.02265 0.04764 0.02910694
v 0.02265 0.04764 0
v -0.02265 0.04764 -0
v -0.02265 0.04764 0.02910694
v -0.01674532 0.04764 0.03071075
v -0.0084257 0.04764 0.03212514
v 0 0.04764 0.03259859
v 0.0084257 0.04764 0.03212514
v -0.03265 -0.01381931 0.02514199
v -0.03265 0.03764 0.02514199
v -0.03265 -0.01381931 -0
v -0.03265 0.03764 -0
v 0.00372777 -0.04764 0.01554352
v 0.00805022 -0.04764 0
v 0.00421 -0.04764 0.0175
v 0.00805022 -0.04764 0.03216651
v 0.00372777 -0.04764 0.01945649
v -0.00149289 -0.04764 0.01356358
v -0.00805022 -0.04764 0
v 0.00050746 -0.04764 0.0133207
v 0.00239155 -0.04764 0.01403524
v -0.00408766 -0.04764 0.01850752
v -0.00805022 -0.04764 0.03216651
v -0.00408766 -0.04764 0.01649248
v -0.00315123 -0.04764 0.01470825
v -0.00315123 -0.04764 0.02029175
v -0.00149289 -0.04764 0.02143642
v 0 -0.04764 0.03259859
v 0.00050746 -0.04764 0.0216793
v 0.00239155 -0.04764 0.02096476
v 0.03265 -0.01381931 0
v 0.03265 0.03764 0
v 0.03265 -0.01381931 0.02514199
v 0.03265 0.03764 0.02514199
v -0.01657623 -0.04286562 -0
v -0.01657623 -0.04286562 0.03074916
v -0.01674532 -0.04258974 0.03071075
v -0.02083253 -0.03592113 0.0296558
v -0.02485412 -0.0293596 0.02837322
v -0.03117601 -0.01904492 -0
v -0.02804385 -0.0241553 0.02717461
v -0.03117601 -0.01904492 0.02583274
v 0.02083253 -0.03592113 0.0296558
v 0.01657623 -0.04286562 0.03074916
v 0.01657623 -0.04286562 0
v 0.03117601 -0.01904492 0
v 0.03117601 -0.01904492 0.02583274
v 0.02804385 -0.0241553 0.02717461
v 0.02485412 -0.0293596 0.02837322
v -0.01057496 -0.04731604 -0
v -0.01293611 -0.04636515 -0
v -0.01498069 -0.04484892 -0
v -0.03227445 -0.01653407 -0
v 0.01293611 -0.04636515 0
v 0.01498069 -0.04484892 0
v 0.01057496 -0.04731604 0
v -0.03216057 0.04073017 -0
v 0.03227445 -0.01653407 0
v 0.02574017 0.04715056 0
v 0.02852785 0.04573017 0
v 0.03074017 0.04351785 0
v -0.03074017 0.04351785 -0
v -0.02852785 0.04573017 -0
v -0.02574017 0.04715056 -0
v 0.03216057 0.04073017 0
v 0.00421 -0.04763 0.0175
v 0.00372777 -0.04763 0.01945649
v 0.00239155 -0.04763 0.02096476
v 0.00050746 -0.04763 0.0216793
v -0.00149289 -0.04763 0.02143642
v -0.00315123 -0.04763 0.02029175
v -0.00408766 -0.04763 0.01850752
v -0.00408766 -0.04763 0.01649248
v -0.00315123 -0.04763 0.01470825
v -0.00149289 -0.04763 0.01356358
v 0.00050746 -0.04763 0.0133207
v 0.00239155 -0.04763 0.01403524
v 0.00372777 -0.04763 0.01554352
v 0 -0.04763 0.0175
v -0.03155768 0.04218458 0.0256576
v -0.03216057 0.04073017 0.02537567
v -0.02879742 0.04251703 0.02686703
v -0.03252498 0.03921632 0.0252021
v -0.02719321 0.04654838 0.02751045
v -0.02852785 0.04573017 0.02697815
v -0.02972072 0.04471142 0.02647712
v -0.03074017 0.04351785 0.02602959
v -0.03191487 -0.01643212 0.02549135
v -0.02485412 0.04739407 0.02837322
v -0.02574017 0.04715056 0.02805675
v -0.03227445 -0.01653407 0.02532168
v -0.0318086 -0.01783427 0.02554105
v -0.03255496 -0.01519475 0.02518771
v 0.02485412 0.04739407 0.02837322
v 0.0318097 -0.01783175 0.02554054
v 0.03227445 -0.01653407 0.02532168
v 0.03191487 -0.01643212 0.02549135
v 0.02718765 0.04655121 0.0275126
v 0.02574017 0.04715056 0.02805675
v 0.02879742 0.04251703 0.02686703
v 0.03074017 0.04351785 0.02602959
v 0.02971629 0.04471584 0.02647902
v 0.02852785 0.04573017 0.02697815
v 0.03252622 0.03920855 0.0252015
v 0.03216057 0.04073017 0.02537567
v 0.03155607 0.04218774 0.02565835
v 0.03255541 -0.01519149 0.02518749
v 0.01057496 -0.04731604 0.03185143
v 0.0117904 -0.04691422 0.03166867
v 0.01293611 -0.04636515 0.03147773
v 0.01400352 -0.04567481 0.03128342
v 0.01498069 -0.04484892 0.03109153
v 0.01583884 -0.04391195 0.03091189
v 0.0084257 -0.04763295 0.03212514
v -0.01583892 -0.04391185 0.03091187
v -0.01498069 -0.04484892 0.03109153
v -0.0140033 -0.04567498 0.03128346
v -0.01293611 -0.04636515 0.03147773
v -0.01179027 -0.04691427 0.03166869
v -0.01057496 -0.04731604 0.03185143
v -0.0084257 -0.04763295 0.03212514
vn 0 1 -0
vn -1 0 -0
vn -0 -1 0
vn 1 -0 0
vn -0.8526 -0.52256 -0
vn -0.8526 -0.52256 0
vn -0.8526 -0.52256 0
vn -0.8526 -0.52256 -0
vn -0.8526 -0.52256 0
vn -0.8526 -0.52256 -0
vn 0.8526 -0.52256 0
vn 0.8526 -0.52256 0
vn 0.8526 -0.52256 -0
vn 0.8526 -0.52256 -0
vn 0.8526 -0.52256 0
vn 0 -0 -1
vn -0.97094 0 -0.23932
vn -0.74851 0 -0.66312
vn -0.35461 -0 -0.93502
vn 0.12054 -0 -0.99271
vn 0.56806 -0 -0.82298
vn 0.88546 -0 -0.46472
vn 0.88546 -0 0.46472
vn 0.56806 0 0.82298
vn 0.12054 0 0.99271
vn -0.35461 0 0.93502
vn -0.74851 0 0.66312
vn -0.97094 0 0.23932
vn 0.26212 0.00064 0.96504
vn -0.4001 -0.01179 0.91639
vn -0.40167 -0.00831 0.91575
vn -0.36987 -0.0011 0.92908
vn -0.38773 0.00065 0.92177
vn -0.39772 -0.00431 0.9175
vn -0.40027 -0.01023 0.91634
vn -0.35343 -0.00314 0.93546
vn -0.33033 -0.02431 0.94355
vn -0.34782 -0.01122 0.93749
vn -0.42667 -0.00028 0.90441
vn -0.41789 0.00053 0.9085
vn -0.408 0.00391 0.91297
vn -0.40586 -0.00266 0.91393
vn -0.40867 0 0.91268
vn -0.42526 0.00137 0.90507
vn -0.42785 0.00048 0.90385
vn -0.42697 0.00103 0.90426
vn 0.31578 -0.00064 0.94883
vn 0.30385 0 0.95272
vn 0.35176 0 0.93609
vn 0.39102 0.00201 0.92038
vn 0.42667 -0.00028 0.90441
vn 0.34778 -0.01125 0.93751
vn 0.33033 -0.02431 0.94355
vn 0.35343 -0.00314 0.93546
vn 0.408 0.00391 0.91297
vn 0.41791 0.00052 0.90849
vn 0.39771 -0.00429 0.9175
vn 0.38769 0.00065 0.92179
vn 0.36983 -0.0011 0.9291
vn 0.40167 -0.0083 0.91575
vn 0.4001 -0.01179 0.91639
vn 0.40027 -0.01023 0.91634
vn 0.42698 0.00103 0.90426
vn 0.42785 0.00048 0.90385
vn 0.42526 0.00137 0.90507
vn 0.40867 0 0.91268
vn 0.40587 -0.00264 0.91393
vn 0.14852 0.00051 0.98891
vn 0.16389 0.00107 0.98648
vn 0.17799 0.00176 0.98403
vn 0.19063 0.00254 0.98166
vn 0.20141 0.00333 0.9795
vn 0.1676 0.00051 0.98585
vn 0.21548 1E-05 0.97651
vn 0.24888 -5E-05 0.96853
vn 0.0561 0.00021 0.99842
vn 0.10953 0 0.99398
vn 0.12633 0 0.99199
vn -0.0561 0.00021 0.99843
vn -0.0536 0 0.99856
vn 0.0536 0 0.99856
vn -0.20141 0.00333 0.9795
vn -0.39102 0.00201 0.92038
vn -0.35176 0 0.93609
vn -0.31585 0 0.94881
vn -0.30439 -0.00036 0.95255
vn -0.26212 0.00064 0.96504
vn -0.24992 0 0.96827
vn -0.1676 0 0.98585
vn -0.21457 0.00447 0.9767
vn -0.21001 0.00405 0.97769
vn -0.19062 0.00254 0.98166
vn -0.178 0.00176 0.98403
vn -0.16389 0.00107 0.98648
vn -0.14852 0.00051 0.98891
vn -0.12633 0 0.99199
vn -0.10953 0 0.99398
vn -0.81741 -0.57605 -0
vn -0.77916 -0.62682 -0.00263
vn -0.73745 -0.6754 -0
vn -0.6455 -0.76376 -0
vn -0.59566 -0.80323 -0.0026
vn -0.54305 -0.8397 -0
vn -0.43217 -0.90179 -0
vn -0.37357 -0.9276 -0.00257
vn -0.31388 -0.94946 -0
vn -0.14587 -0.9893 0
vn -0.12727 -0.99187 -0.00127
vn -0.01877 -0.99982 0
vn -0.99762 -0.06894 -0
vn -0.99056 -0.13703 -0.00375
vn -0.97876 -0.20499 -0
vn -0.9414 -0.33729 -0
vn -0.91616 -0.4008 -0.00369
vn -0.8863 -0.46311 -0
vn 0.01877 -0.99982 0
vn 0.12727 -0.99187 -0.00127
vn 0.14587 -0.9893 0
vn 0.31389 -0.94946 0
vn 0.37357 -0.9276 -0.00257
vn 0.43217 -0.90179 0
vn 0.77916 -0.62683 0
vn 0.81701 -0.57659 -0.0052
vn 0.73744 -0.67541 0
vn 0.59566 -0.80323 0
vn 0.64491 -0.76424 -0.00514
vn 0.54306 -0.83969 0
vn 0.99057 -0.13703 0
vn 0.99759 -0.06902 -0.00745
vn 0.9788 -0.20483 0
vn 0.91617 -0.4008 0
vn 0.94103 -0.33824 -0.00728
vn 0.88636 -0.46299 0
vn -0.11089 0.99383 -0
vn -0.15643 0.98768 -0.00359
vn -0.26499 0.96425 -0
vn -0.70711 0.70711 -0
vn -0.75867 0.65141 -0.00912
vn -0.64943 0.76042 -0
vn -0.45399 0.89101 -0
vn -0.52009 0.85407 -0.00878
vn -0.38285 0.92381 -0
vn -0.98769 0.15643 -0
vn -0.99679 0.07943 -0.00964
vn -0.97223 0.23404 -0
vn -0.89101 0.45399 -0
vn -0.92309 0.38447 -0.00943
vn -0.8525 0.52272 -0
vn 0.9969 0.07867 0
vn 0.98768 0.15643 -0.00489
vn 0.97232 0.23365 0
vn 0.92371 0.38309 0
vn 0.891 0.45398 -0.0048
vn 0.85241 0.52287 0
vn 0.76019 0.64971 0
vn 0.7071 0.7071 -0.00465
vn 0.64919 0.76062 0
vn 0.52239 0.85271 0
vn 0.45399 0.891 -0.00447
vn 0.38257 0.92393 0
vn 0.26499 0.96425 0
vn 0.15643 0.98768 -0.00359
vn 0.11089 0.99383 -0
f 1//1 2//1 3//1
f 4//1 5//1 6//1
f 6//1 7//1 4//1
f 4//1 7//1 8//1
f 4//1 8//1 3//1
f 3//1 8//1 9//1
f 3//1 9//1 1//1
f 10//2 11//2 12//2
f 12//2 11//2 13//2
f 14//3 15//3 16//3
f 16//3 15//3 17//3
f 16//3 17//3 18//3
f 19//3 20//3 21//3
f 21//3 20//3 15//3
f 21//3 15//3 22//3
f 22//3 15//3 14//3
f 23//3 24//3 25//3
f 25//3 24//3 20//3
f 25//3 20//3 26//3
f 26//3 20//3 19//3
f 23//3 27//3 24//3
f 24//3 27//3 28//3
f 24//3 28//3 29//3
f 29//3 28//3 30//3
f 29//3 30//3 17//3
f 17//3 30//3 31//3
f 17//3 31//3 18//3
f 32//4 33//4 34//4
f 34//4 33//4 35//4
f 36//5 37//5 38//5
f 38//6 39//6 36//6
f 36//7 39//7 40//7
f 36//8 40//8 41//8
f 41//9 40//9 42//9
f 41//10 42//10 43//10
f 44//11 45//11 46//11
f 47//12 48//12 49//12
f 47//13 49//13 46//13
f 46//14 49//14 50//14
f 46//15 50//15 44//15
f 51//16 52//16 4//16
f 4//16 52//16 53//16
f 4//16 53//16 36//16
f 54//16 12//16 41//16
f 41//16 12//16 36//16
f 33//16 32//16 3//16
f 55//16 3//16 56//16
f 56//16 3//16 46//16
f 55//16 57//16 3//16
f 3//16 57//16 15//16
f 3//16 15//16 4//16
f 4//16 15//16 20//16
f 4//16 20//16 51//16
f 36//16 12//16 4//16
f 4//16 12//16 13//16
f 4//16 13//16 58//16
f 32//16 59//16 3//16
f 3//16 59//16 47//16
f 3//16 47//16 46//16
f 60//16 61//16 62//16
f 58//16 63//16 4//16
f 4//16 63//16 64//16
f 4//16 64//16 65//16
f 60//16 62//16 3//16
f 3//16 62//16 66//16
f 3//16 66//16 33//16
f 67//17 16//17 68//17
f 68//17 16//17 18//17
f 68//18 18//18 69//18
f 69//18 18//18 31//18
f 69//19 31//19 70//19
f 70//19 31//19 30//19
f 70//20 30//20 71//20
f 71//20 30//20 28//20
f 71//21 28//21 72//21
f 72//21 28//21 27//21
f 72//22 27//22 73//22
f 73//22 27//22 23//22
f 73//4 23//4 74//4
f 74//4 23//4 25//4
f 74//23 25//23 75//23
f 75//23 25//23 26//23
f 75//24 26//24 76//24
f 76//24 26//24 19//24
f 76//25 19//25 77//25
f 77//25 19//25 21//25
f 77//26 21//26 78//26
f 78//26 21//26 22//26
f 78//27 22//27 79//27
f 79//27 22//27 14//27
f 79//28 14//28 67//28
f 67//28 14//28 16//28
f 67//3 68//3 80//3
f 77//3 78//3 80//3
f 80//3 78//3 79//3
f 80//3 79//3 67//3
f 74//3 75//3 80//3
f 80//3 75//3 76//3
f 80//3 76//3 77//3
f 71//3 72//3 80//3
f 80//3 72//3 73//3
f 80//3 73//3 74//3
f 68//3 69//3 80//3
f 80//3 69//3 70//3
f 80//3 70//3 71//3
f 2//29 1//29 44//29
f 81//30 82//30 83//30
f 83//31 82//31 84//31
f 83//32 85//32 86//32
f 86//33 87//33 83//33
f 83//34 87//34 88//34
f 83//35 88//35 81//35
f 89//36 90//36 83//36
f 83//37 90//37 91//37
f 83//38 91//38 85//38
f 92//39 93//39 89//39
f 89//40 93//40 43//40
f 89//41 43//41 90//41
f 84//42 11//42 83//42
f 83//43 11//43 10//43
f 83//44 10//44 89//44
f 89//45 10//45 94//45
f 89//46 94//46 92//46
f 2//47 44//47 95//47
f 44//48 50//48 95//48
f 95//49 50//49 49//49
f 95//50 49//50 48//50
f 96//51 97//51 98//51
f 99//52 100//52 101//52
f 101//53 100//53 95//53
f 101//54 95//54 98//54
f 98//55 95//55 48//55
f 98//56 48//56 96//56
f 102//57 103//57 101//57
f 101//58 103//58 104//58
f 101//59 104//59 99//59
f 105//60 106//60 101//60
f 101//61 106//61 107//61
f 101//62 107//62 102//62
f 97//63 108//63 98//63
f 98//64 108//64 34//64
f 98//65 34//65 101//65
f 101//66 34//66 35//66
f 101//67 35//67 105//67
f 109//68 110//68 9//68
f 9//69 110//69 111//69
f 9//70 111//70 112//70
f 112//71 113//71 9//71
f 9//72 113//72 114//72
f 9//73 114//73 1//73
f 1//74 114//74 45//74
f 1//75 45//75 44//75
f 8//76 17//76 9//76
f 9//77 17//77 115//77
f 9//78 115//78 109//78
f 7//79 24//79 8//79
f 8//80 24//80 29//80
f 8//81 29//81 17//81
f 116//82 117//82 7//82
f 43//83 42//83 90//83
f 90//84 42//84 40//84
f 90//85 40//85 5//85
f 5//86 40//86 39//86
f 5//87 39//87 6//87
f 6//88 39//88 38//88
f 6//89 38//89 7//89
f 7//90 38//90 37//90
f 7//91 37//91 116//91
f 117//92 118//92 7//92
f 7//93 118//93 119//93
f 7//94 119//94 120//94
f 120//95 121//95 7//95
f 7//96 121//96 122//96
f 7//97 122//97 24//97
f 37//98 36//98 116//98
f 116//99 36//99 53//99
f 116//100 53//100 117//100
f 117//101 53//101 118//101
f 118//102 53//102 52//102
f 118//103 52//103 119//103
f 119//104 52//104 120//104
f 120//105 52//105 51//105
f 120//106 51//106 121//106
f 121//107 51//107 122//107
f 122//108 51//108 20//108
f 122//109 20//109 24//109
f 10//110 12//110 94//110
f 94//111 12//111 54//111
f 94//112 54//112 92//112
f 92//113 54//113 93//113
f 93//114 54//114 41//114
f 93//115 41//115 43//115
f 17//116 15//116 115//116
f 115//117 15//117 57//117
f 115//118 57//118 109//118
f 109//119 57//119 110//119
f 110//120 57//120 55//120
f 110//121 55//121 111//121
f 56//122 46//122 45//122
f 45//123 114//123 56//123
f 56//124 114//124 113//124
f 56//125 113//125 55//125
f 55//126 113//126 112//126
f 55//127 112//127 111//127
f 59//128 32//128 34//128
f 34//129 108//129 59//129
f 59//130 108//130 97//130
f 59//131 97//131 47//131
f 47//132 97//132 96//132
f 47//133 96//133 48//133
f 5//134 4//134 90//134
f 90//135 4//135 65//135
f 90//136 65//136 91//136
f 64//137 63//137 88//137
f 88//138 87//138 64//138
f 64//139 87//139 86//139
f 64//140 86//140 65//140
f 65//141 86//141 85//141
f 65//142 85//142 91//142
f 58//143 13//143 11//143
f 11//144 84//144 58//144
f 58//145 84//145 82//145
f 58//146 82//146 63//146
f 63//147 82//147 81//147
f 63//148 81//148 88//148
f 35//149 33//149 105//149
f 105//150 33//150 66//150
f 105//151 66//151 106//151
f 106//152 66//152 107//152
f 107//153 66//153 62//153
f 107//154 62//154 102//154
f 102//155 62//155 103//155
f 103//156 62//156 61//156
f 103//157 61//157 104//157
f 104//158 61//158 99//158
f 99//159 61//159 60//159
f 99//160 60//160 100//160
f 100//161 60//161 95//161
f 95//162 60//162 3//162
f 95//163 3//163 2//163
# Vertices: 122, normals: 163, texture coordinates: 0, faces: 240

