# File generated by ImageToStl.com - Free Image and 3D model conversion tools

o obj1
v -1.51E-06 0.03093535 -0.04939532
v -1.51E-06 0.02933155 -0.0553
v -1.51E-06 0.0002246 -0.0553
v -1.51E-06 0.0002246 -0.01
v -1.51E-06 0.02933155 -0.01
v -1.51E-06 0.03093535 -0.01590468
v -1.51E-06 0.03234974 -0.0242243
v -1.51E-06 0.03282319 -0.03265
v -1.51E-06 0.03234974 -0.0410757
v 0.0614578 0.02536659 -0
v 0.00999849 0.02536659 0
v 0.0614578 0.0002246 0
v 0.00999849 0.0002246 0
v 0.09527849 0.01576812 -0.03637777
v 0.09527849 0.0002246 -0.04070022
v 0.09527849 0.0177246 -0.03686
v 0.09527849 0.03239112 -0.04070022
v 0.09527849 0.01968109 -0.03637777
v 0.09527849 0.01378818 -0.03115711
v 0.09527849 0.0002246 -0.02459978
v 0.09527849 0.0135453 -0.03315746
v 0.09527849 0.01425984 -0.03504155
v 0.09527849 0.01873212 -0.02856234
v 0.09527849 0.03239112 -0.02459978
v 0.09527849 0.01671708 -0.02856234
v 0.09527849 0.01493285 -0.02949877
v 0.09527849 0.02051635 -0.02949877
v 0.09527849 0.02166102 -0.03115711
v 0.09527849 0.03282319 -0.03265
v 0.09527849 0.02190391 -0.03315746
v 0.09527849 0.02118936 -0.03504155
v 0.0614578 0.0002246 -0.0653
v 0.00999849 0.0002246 -0.0653
v 0.0614578 0.02536659 -0.0653
v 0.00999849 0.02536659 -0.0653
v 0.09050412 0.0002246 -0.01607377
v 0.09050412 0.03097376 -0.01607377
v 0.09022823 0.03093535 -0.01590468
v 0.08355962 0.02988041 -0.01181747
v 0.07699809 0.02859782 -0.00779588
v 0.06668342 0.0002246 -0.00147399
v 0.07179379 0.02739921 -0.00460615
v 0.06668342 0.02605734 -0.00147399
v 0.08355962 0.02988041 -0.05348253
v 0.09050412 0.03097376 -0.04922623
v 0.09050412 0.0002246 -0.04922623
v 0.06668342 0.0002246 -0.06382601
v 0.06668342 0.02605734 -0.06382601
v 0.07179379 0.02739921 -0.06069385
v 0.07699809 0.02859782 -0.05750412
v 0.09495454 0.0002246 -0.02207504
v 0.09400364 0.0002246 -0.01971389
v 0.09248742 0.0002246 -0.01766931
v 0.06417257 0.0002246 -0.00037555
v 0.09400364 0.0002246 -0.04558611
v 0.09248742 0.0002246 -0.04763069
v 0.09495454 0.0002246 -0.04322496
v 0.00690832 0.0002246 -0.00048943
v 0.06417257 0.0002246 -0.06492445
v 0.00048793 0.0002246 -0.05839017
v 0.00190832 0.0002246 -0.06117785
v 0.00412064 0.0002246 -0.06339017
v 0.00412064 0.0002246 -0.00190983
v 0.00190832 0.0002246 -0.00412215
v 0.00048793 0.0002246 -0.00690983
v 0.00690832 0.0002246 -0.06481057
v 0.0952685 0.0177246 -0.03686
v 0.0952685 0.01968109 -0.03637777
v 0.0952685 0.02118936 -0.03504155
v 0.0952685 0.02190391 -0.03315746
v 0.0952685 0.02166102 -0.03115711
v 0.0952685 0.02051635 -0.02949877
v 0.0952685 0.01873212 -0.02856234
v 0.0952685 0.01671708 -0.02856234
v 0.0952685 0.01493285 -0.02949877
v 0.0952685 0.01378818 -0.03115711
v 0.0952685 0.0135453 -0.03315746
v 0.0952685 0.01425984 -0.03504155
v 0.0952685 0.01576812 -0.03637777
v 0.0952685 0.0177246 -0.03265
v 0.00545392 0.0258822 -0.00109232
v 0.00690832 0.02560028 -0.00048943
v 0.00512146 0.02709164 -0.00385258
v 0.00842217 0.0254267 -0.00012502
v 0.00109011 0.02773505 -0.00545679
v 0.00190832 0.02720275 -0.00412215
v 0.00292708 0.02670172 -0.00292928
v 0.00412064 0.0262542 -0.00190983
v 0.06407061 0.02571595 -0.00073512
v 0.00024442 0.02859782 -0.00779588
v 0.00048793 0.02828135 -0.00690983
v 0.06417257 0.02554629 -0.00037555
v 0.06547277 0.02576566 -0.0008414
v 0.0614578 0.02536659 0
v 0.06283324 0.02541231 -9.504E-05
v 0.00024442 0.02859782 -0.05750412
v 0.06547025 0.02576514 -0.0644597
v 0.06417257 0.02554629 -0.06492445
v 0.06407061 0.02571595 -0.06456488
v 0.00108728 0.0277372 -0.05983765
v 0.00048793 0.02828135 -0.05839017
v 0.00512146 0.02709164 -0.06144742
v 0.00412064 0.0262542 -0.06339017
v 0.00292265 0.02670362 -0.06236629
v 0.00190832 0.02720275 -0.06117785
v 0.00842994 0.0254261 -0.06517622
v 0.00690832 0.02560028 -0.06481057
v 0.00545075 0.02588295 -0.06420607
v 0.06282999 0.02541209 -0.06520541
v 0.09495454 0.03207603 -0.04322496
v 0.09455271 0.03189328 -0.0444404
v 0.09400364 0.03170234 -0.04558611
v 0.09331331 0.03150802 -0.04665352
v 0.09248742 0.03131613 -0.04763069
v 0.09155045 0.03113649 -0.04848884
v 0.09527145 0.03234974 -0.0410757
v 0.09155034 0.03113647 -0.01681107
v 0.09248742 0.03131613 -0.01766931
v 0.09331348 0.03150806 -0.0186467
v 0.09400364 0.03170234 -0.01971389
v 0.09455276 0.03189329 -0.02085973
v 0.09495454 0.03207603 -0.02207504
v 0.09527145 0.03234974 -0.0242243
vn -1 0 0
vn 0 0 1
vn 1 -0 -0
vn -0 -0 -1
vn 0.52256 -0 0.8526
vn 0.52256 0 0.8526
vn 0.52256 0 0.8526
vn 0.52256 -0 0.8526
vn 0.52256 0 0.8526
vn 0.52256 -0 0.8526
vn 0.52256 -0 -0.8526
vn 0.52256 -0 -0.8526
vn 0.52256 -0 -0.8526
vn 0.52256 -0 -0.8526
vn 0.52256 0 -0.8526
vn -0 -1 0
vn 0 -0.23932 0.97094
vn -0 -0.66312 0.74851
vn -0 -0.93502 0.35461
vn -0 -0.99271 -0.12054
vn -0 -0.82298 -0.56806
vn -0 -0.46472 -0.88546
vn -0 0.46472 -0.88546
vn 0 0.82298 -0.56806
vn 0 0.99271 -0.12054
vn 0 0.93502 0.35461
vn 0 0.66312 0.74851
vn 0 0.23932 0.97094
vn -0.00064 0.96504 -0.26212
vn 0.01179 0.91639 0.4001
vn 0.00831 0.91575 0.40167
vn 0.0011 0.92908 0.36987
vn -0.00065 0.92177 0.38773
vn 0.00431 0.9175 0.39772
vn 0.01023 0.91634 0.40027
vn 0.00314 0.93546 0.35343
vn 0.02431 0.94355 0.33033
vn 0.01122 0.93749 0.34782
vn 0.00028 0.90441 0.42667
vn -0.00053 0.9085 0.41789
vn -0.00391 0.91297 0.408
vn 0.00266 0.91393 0.40586
vn 0 0.91268 0.40867
vn -0.00137 0.90507 0.42526
vn -0.00048 0.90385 0.42785
vn -0.00103 0.90426 0.42697
vn 0.00064 0.94883 -0.31578
vn 0 0.95272 -0.30385
vn 0 0.93609 -0.35176
vn -0.00201 0.92038 -0.39102
vn 0.00028 0.90441 -0.42667
vn 0.01125 0.93751 -0.34778
vn 0.02431 0.94355 -0.33033
vn 0.00314 0.93546 -0.35343
vn -0.00391 0.91297 -0.408
vn -0.00052 0.90849 -0.41791
vn 0.00429 0.9175 -0.39771
vn -0.00065 0.92179 -0.38769
vn 0.0011 0.9291 -0.36983
vn 0.0083 0.91575 -0.40167
vn 0.01179 0.91639 -0.4001
vn 0.01023 0.91634 -0.40027
vn -0.00103 0.90426 -0.42698
vn -0.00048 0.90385 -0.42785
vn -0.00137 0.90507 -0.42526
vn 0 0.91268 -0.40867
vn 0.00264 0.91393 -0.40587
vn -0.00051 0.98891 -0.14852
vn -0.00107 0.98648 -0.16389
vn -0.00176 0.98403 -0.17799
vn -0.00254 0.98166 -0.19063
vn -0.00333 0.9795 -0.20141
vn -0.00051 0.98585 -0.1676
vn -1E-05 0.97651 -0.21548
vn 5E-05 0.96853 -0.24888
vn -0.00021 0.99842 -0.0561
vn 0 0.99398 -0.10953
vn 0 0.99199 -0.12633
vn -0.00021 0.99843 0.0561
vn 0 0.99856 0.0536
vn 0 0.99856 -0.0536
vn -0.00333 0.9795 0.20141
vn -0.00201 0.92038 0.39102
vn 0 0.93609 0.35176
vn 0 0.94881 0.31585
vn 0.00036 0.95255 0.30439
vn -0.00064 0.96504 0.26212
vn 0 0.96827 0.24992
vn 0 0.98585 0.1676
vn -0.00447 0.9767 0.21457
vn -0.00405 0.97769 0.21001
vn -0.00254 0.98166 0.19062
vn -0.00176 0.98403 0.178
vn -0.00107 0.98648 0.16389
vn -0.00051 0.98891 0.14852
vn 0 0.99199 0.12633
vn 0 0.99398 0.10953
vn 0.57605 -0 0.81741
vn 0.62682 -0.00263 0.77916
vn 0.6754 -0 0.73745
vn 0.76376 -0 0.6455
vn 0.80323 -0.0026 0.59566
vn 0.8397 -0 0.54305
vn 0.90179 -0 0.43217
vn 0.9276 -0.00257 0.37357
vn 0.94946 -0 0.31388
vn 0.9893 -0 0.14587
vn 0.99187 -0.00127 0.12727
vn 0.99982 -0 0.01877
vn 0.06894 0 0.99762
vn 0.13703 -0.00375 0.99056
vn 0.20499 -0 0.97876
vn 0.33729 -0 0.9414
vn 0.4008 -0.00369 0.91616
vn 0.46311 -0 0.8863
vn 0.99982 -0 -0.01877
vn 0.99187 -0.00127 -0.12727
vn 0.9893 -0 -0.14587
vn 0.94946 -0 -0.31389
vn 0.9276 -0.00257 -0.37357
vn 0.90179 -0 -0.43217
vn 0.62683 -0 -0.77916
vn 0.57659 -0.0052 -0.81701
vn 0.67541 -0 -0.73744
vn 0.80323 -0 -0.59566
vn 0.76424 -0.00514 -0.64491
vn 0.83969 -0 -0.54306
vn 0.13703 -0 -0.99057
vn 0.06902 -0.00745 -0.99759
vn 0.20483 -0 -0.9788
vn 0.4008 -0 -0.91617
vn 0.33824 -0.00728 -0.94103
vn 0.46299 -0 -0.88636
vn -0.99383 0 0.11089
vn -0.98768 -0.00359 0.15643
vn -0.96425 0 0.26499
vn -0.70711 0 0.70711
vn -0.65141 -0.00912 0.75867
vn -0.76042 0 0.64943
vn -0.89101 0 0.45399
vn -0.85407 -0.00878 0.52009
vn -0.92381 0 0.38285
vn -0.15643 0 0.98769
vn -0.07943 -0.00964 0.99679
vn -0.23404 0 0.97223
vn -0.45399 0 0.89101
vn -0.38447 -0.00943 0.92309
vn -0.52272 0 0.8525
vn -0.07867 -0 -0.9969
vn -0.15643 -0.00489 -0.98768
vn -0.23365 0 -0.97232
vn -0.38309 0 -0.92371
vn -0.45398 -0.0048 -0.891
vn -0.52287 0 -0.85241
vn -0.64971 0 -0.76019
vn -0.7071 -0.00465 -0.7071
vn -0.76062 0 -0.64919
vn -0.85271 0 -0.52239
vn -0.891 -0.00447 -0.45399
vn -0.92393 0 -0.38257
vn -0.96425 0 -0.26499
vn -0.98768 -0.00359 -0.15643
vn -0.99383 0 -0.11089
f 1//1 2//1 3//1
f 4//1 5//1 6//1
f 6//1 7//1 4//1
f 4//1 7//1 8//1
f 4//1 8//1 3//1
f 3//1 8//1 9//1
f 3//1 9//1 1//1
f 10//2 11//2 12//2
f 12//2 11//2 13//2
f 14//3 15//3 16//3
f 16//3 15//3 17//3
f 16//3 17//3 18//3
f 19//3 20//3 21//3
f 21//3 20//3 15//3
f 21//3 15//3 22//3
f 22//3 15//3 14//3
f 23//3 24//3 25//3
f 25//3 24//3 20//3
f 25//3 20//3 26//3
f 26//3 20//3 19//3
f 23//3 27//3 24//3
f 24//3 27//3 28//3
f 24//3 28//3 29//3
f 29//3 28//3 30//3
f 29//3 30//3 17//3
f 17//3 30//3 31//3
f 17//3 31//3 18//3
f 32//4 33//4 34//4
f 34//4 33//4 35//4
f 36//5 37//5 38//5
f 38//6 39//6 36//6
f 36//7 39//7 40//7
f 36//8 40//8 41//8
f 41//9 40//9 42//9
f 41//10 42//10 43//10
f 44//11 45//11 46//11
f 47//12 48//12 49//12
f 47//13 49//13 46//13
f 46//14 49//14 50//14
f 46//15 50//15 44//15
f 51//16 52//16 4//16
f 4//16 52//16 53//16
f 4//16 53//16 36//16
f 54//16 12//16 41//16
f 41//16 12//16 36//16
f 33//16 32//16 3//16
f 55//16 3//16 56//16
f 56//16 3//16 46//16
f 55//16 57//16 3//16
f 3//16 57//16 15//16
f 3//16 15//16 4//16
f 4//16 15//16 20//16
f 4//16 20//16 51//16
f 36//16 12//16 4//16
f 4//16 12//16 13//16
f 4//16 13//16 58//16
f 32//16 59//16 3//16
f 3//16 59//16 47//16
f 3//16 47//16 46//16
f 60//16 61//16 62//16
f 58//16 63//16 4//16
f 4//16 63//16 64//16
f 4//16 64//16 65//16
f 60//16 62//16 3//16
f 3//16 62//16 66//16
f 3//16 66//16 33//16
f 67//17 16//17 68//17
f 68//17 16//17 18//17
f 68//18 18//18 69//18
f 69//18 18//18 31//18
f 69//19 31//19 70//19
f 70//19 31//19 30//19
f 70//20 30//20 71//20
f 71//20 30//20 28//20
f 71//21 28//21 72//21
f 72//21 28//21 27//21
f 72//22 27//22 73//22
f 73//22 27//22 23//22
f 73//4 23//4 74//4
f 74//4 23//4 25//4
f 74//23 25//23 75//23
f 75//23 25//23 26//23
f 75//24 26//24 76//24
f 76//24 26//24 19//24
f 76//25 19//25 77//25
f 77//25 19//25 21//25
f 77//26 21//26 78//26
f 78//26 21//26 22//26
f 78//27 22//27 79//27
f 79//27 22//27 14//27
f 79//28 14//28 67//28
f 67//28 14//28 16//28
f 67//3 68//3 80//3
f 77//3 78//3 80//3
f 80//3 78//3 79//3
f 80//3 79//3 67//3
f 74//3 75//3 80//3
f 80//3 75//3 76//3
f 80//3 76//3 77//3
f 71//3 72//3 80//3
f 80//3 72//3 73//3
f 80//3 73//3 74//3
f 68//3 69//3 80//3
f 80//3 69//3 70//3
f 80//3 70//3 71//3
f 2//29 1//29 44//29
f 81//30 82//30 83//30
f 83//31 82//31 84//31
f 83//32 85//32 86//32
f 86//33 87//33 83//33
f 83//34 87//34 88//34
f 83//35 88//35 81//35
f 89//36 90//36 83//36
f 83//37 90//37 91//37
f 83//38 91//38 85//38
f 92//39 93//39 89//39
f 89//40 93//40 43//40
f 89//41 43//41 90//41
f 84//42 11//42 83//42
f 83//43 11//43 94//43
f 83//44 94//44 89//44
f 89//45 94//45 95//45
f 89//46 95//46 92//46
f 2//47 44//47 96//47
f 44//48 50//48 96//48
f 96//49 50//49 49//49
f 96//50 49//50 48//50
f 97//51 98//51 99//51
f 100//52 101//52 102//52
f 102//53 101//53 96//53
f 102//54 96//54 99//54
f 99//55 96//55 48//55
f 99//56 48//56 97//56
f 103//57 104//57 102//57
f 102//58 104//58 105//58
f 102//59 105//59 100//59
f 106//60 107//60 102//60
f 102//61 107//61 108//61
f 102//62 108//62 103//62
f 98//63 109//63 99//63
f 99//64 109//64 34//64
f 99//65 34//65 102//65
f 102//66 34//66 35//66
f 102//67 35//67 106//67
f 110//68 111//68 9//68
f 9//69 111//69 112//69
f 9//70 112//70 113//70
f 113//71 114//71 9//71
f 9//72 114//72 115//72
f 9//73 115//73 1//73
f 1//74 115//74 45//74
f 1//75 45//75 44//75
f 8//76 17//76 9//76
f 9//77 17//77 116//77
f 9//78 116//78 110//78
f 7//79 24//79 8//79
f 8//80 24//80 29//80
f 8//81 29//81 17//81
f 117//82 118//82 7//82
f 43//83 42//83 90//83
f 90//84 42//84 40//84
f 90//85 40//85 5//85
f 5//86 40//86 39//86
f 5//87 39//87 6//87
f 6//88 39//88 38//88
f 6//89 38//89 7//89
f 7//90 38//90 37//90
f 7//91 37//91 117//91
f 118//92 119//92 7//92
f 7//93 119//93 120//93
f 7//94 120//94 121//94
f 121//95 122//95 7//95
f 7//96 122//96 123//96
f 7//97 123//97 24//97
f 37//98 36//98 117//98
f 117//99 36//99 53//99
f 117//100 53//100 118//100
f 118//101 53//101 119//101
f 119//102 53//102 52//102
f 119//103 52//103 120//103
f 120//104 52//104 121//104
f 121//105 52//105 51//105
f 121//106 51//106 122//106
f 122//107 51//107 123//107
f 123//108 51//108 20//108
f 123//109 20//109 24//109
f 10//110 12//110 95//110
f 95//111 12//111 54//111
f 95//112 54//112 92//112
f 92//113 54//113 93//113
f 93//114 54//114 41//114
f 93//115 41//115 43//115
f 17//116 15//116 116//116
f 116//117 15//117 57//117
f 116//118 57//118 110//118
f 110//119 57//119 111//119
f 111//120 57//120 55//120
f 111//121 55//121 112//121
f 56//122 46//122 45//122
f 45//123 115//123 56//123
f 56//124 115//124 114//124
f 56//125 114//125 55//125
f 55//126 114//126 113//126
f 55//127 113//127 112//127
f 59//128 32//128 34//128
f 34//129 109//129 59//129
f 59//130 109//130 98//130
f 59//131 98//131 47//131
f 47//132 98//132 97//132
f 47//133 97//133 48//133
f 5//134 4//134 90//134
f 90//135 4//135 65//135
f 90//136 65//136 91//136
f 64//137 63//137 88//137
f 88//138 87//138 64//138
f 64//139 87//139 86//139
f 64//140 86//140 65//140
f 65//141 86//141 85//141
f 65//142 85//142 91//142
f 58//143 13//143 11//143
f 11//144 84//144 58//144
f 58//145 84//145 82//145
f 58//146 82//146 63//146
f 63//147 82//147 81//147
f 63//148 81//148 88//148
f 35//149 33//149 106//149
f 106//150 33//150 66//150
f 106//151 66//151 107//151
f 107//152 66//152 108//152
f 108//153 66//153 62//153
f 108//154 62//154 103//154
f 103//155 62//155 104//155
f 104//156 62//156 61//156
f 104//157 61//157 105//157
f 105//158 61//158 100//158
f 100//159 61//159 60//159
f 100//160 60//160 101//160
f 101//161 60//161 96//161
f 96//162 60//162 3//162
f 96//163 3//163 2//163
# Vertices: 123, normals: 163, texture coordinates: 0, faces: 240

