# File generated by ImageToStl.com - Free Image and 3D model conversion tools

o obj1
v 304.80001831 1 0
v 381 1 0
v 304.80001831 0 0
v 381 0 0
v 276.67660522 0 1.30021572
v 276.67660522 1 1.30021572
v 248.79315186 0 5.18980598
v 248.79315186 1 5.18980598
v 221.38752747 0 11.63554192
v 221.38752747 1 11.63554192
v 194.69355774 0 20.58246803
v 194.69355774 1 20.58246803
v 168.93894958 0 31.95422935
v 168.93894958 1 31.95422935
v 144.34347534 0 45.65382004
v 144.34347534 1 45.65382004
v 121.11696625 0 61.56435776
v 121.11696625 1 61.56435776
v 99.45758057 0 79.55008698
v 99.45758057 1 79.55008698
v 79.55008698 0 99.45758057
v 79.55008698 1 99.45758057
v 61.56435776 0 121.11696625
v 61.56435776 1 121.11696625
v 45.65382004 0 144.34347534
v 45.65382004 1 144.34347534
v 31.95422935 0 168.93894958
v 31.95422935 1 168.93894958
v 20.58246803 0 194.69354248
v 20.58246803 1 194.69354248
v 11.63554192 0 221.38752747
v 11.63554192 1 221.38752747
v 5.18980598 0 248.79315186
v 5.18980598 1 248.79315186
v 1.30024552 0 276.67660522
v 1.30024552 1 276.67660522
v 0 0 304.80001831
v 0 1 304.80001831
v 300.80001831 1 304.80001831
v 300.80001831 0 304.80001831
v 300.86077881 1 304.10540771
v 300.86077881 0 304.10540771
v 301.04122925 1 303.43191528
v 301.04122925 0 303.43191528
v 301.33590698 1 302.80001831
v 301.33590698 0 302.80001831
v 301.73583984 1 302.22885132
v 301.73583984 0 302.22885132
v 302.22885132 1 301.73583984
v 302.22885132 0 301.73583984
v 302.80001831 1 301.33590698
v 302.80001831 0 301.33590698
v 303.43191528 1 301.04122925
v 303.43191528 0 301.04122925
v 304.10540771 1 300.86077881
v 304.10540771 0 300.86077881
v 304.80001831 1 300.80001831
v 304.80001831 0 300.80001831
v 305.49459839 1 300.86077881
v 305.49459839 0 300.86077881
v 306.16809082 1 301.04122925
v 306.16809082 0 301.04122925
v 306.80001831 1 301.33590698
v 306.80001831 0 301.33590698
v 307.37115479 1 301.73583984
v 307.37115479 0 301.73583984
v 307.86419678 1 302.22885132
v 307.86419678 0 302.22885132
v 308.26409912 1 302.80001831
v 308.26409912 0 302.80001831
v 308.55877686 1 303.43191528
v 308.55877686 0 303.43191528
v 308.73922729 1 304.10540771
v 308.73922729 0 304.10540771
v 308.80001831 1 304.80001831
v 308.80001831 0 304.80001831
v 377 1 304.80001831
v 377 0 304.80001831
v 377.06079102 1 304.10540771
v 377.06079102 0 304.10540771
v 377.24124146 1 303.43191528
v 377.24124146 0 303.43191528
v 377.53591919 1 302.80001831
v 377.53591919 0 302.80001831
v 377.93582153 1 302.22885132
v 377.93582153 0 302.22885132
v 378.42886353 1 301.73583984
v 378.42886353 0 301.73583984
v 379 1 301.33590698
v 379 0 301.33590698
v 379.63192749 1 301.04122925
v 379.63192749 0 301.04122925
v 380.30541992 1 300.86077881
v 380.30541992 0 300.86077881
v 381 1 300.80001831
v 381 0 300.80001831
v 381.6946106 1 300.86077881
v 381.6946106 0 300.86077881
v 382.36810303 1 301.04122925
v 382.36810303 0 301.04122925
v 383 1 301.33590698
v 383 0 301.33590698
v 383.57116699 1 301.73583984
v 383.57116699 0 301.73583984
v 384.06417847 1 302.22885132
v 384.06417847 0 302.22885132
v 384.46411133 1 302.80001831
v 384.46411133 0 302.80001831
v 384.75878906 1 303.43191528
v 384.75878906 0 303.43191528
v 384.9392395 1 304.10540771
v 384.9392395 0 304.10540771
v 385 1 304.80001831
v 385 0 304.80001831
v 685.79998779 1 304.80001831
v 685.79998779 0 304.80001831
v 684.49975586 0 276.67660522
v 684.49975586 1 276.67660522
v 680.61022949 0 248.79315186
v 680.61022949 1 248.79315186
v 674.16448975 0 221.38752747
v 674.16448975 1 221.38752747
v 665.2175293 0 194.69354248
v 665.2175293 1 194.69354248
v 653.84576416 0 168.93894958
v 653.84576416 1 168.93894958
v 640.1461792 0 144.34347534
v 640.1461792 1 144.34347534
v 624.23565674 0 121.11696625
v 624.23565674 1 121.11696625
v 606.24993896 0 99.45758057
v 606.24993896 1 99.45758057
v 586.34246826 0 79.55008698
v 586.34246826 1 79.55008698
v 564.68304443 0 61.56435776
v 564.68304443 1 61.56435776
v 541.45654297 0 45.65382004
v 541.45654297 1 45.65382004
v 516.86108398 0 31.95422935
v 516.86108398 1 31.95422935
v 491.10647583 0 20.58246803
v 491.10647583 1 20.58246803
v 464.41247559 0 11.63554192
v 464.41247559 1 11.63554192
v 437.00686646 0 5.18980598
v 437.00686646 1 5.18980598
v 409.12341309 0 1.30021572
v 409.12341309 1 1.30021572
vn 0 0 -1
vn -0.04618 -0 -0.99893
vn -0.13816 -0 -0.99041
vn -0.22895 -0 -0.97344
vn -0.31779 -0 -0.94816
vn -0.40392 -0 -0.91479
vn -0.4866 -0 -0.87362
vn -0.56514 -0 -0.825
vn -0.63885 -0 -0.76933
vn -0.70711 -0 -0.70711
vn -0.76933 -0 -0.63885
vn -0.825 -0 -0.56514
vn -0.87362 -0 -0.4866
vn -0.91479 -0 -0.40392
vn -0.94816 -0 -0.31779
vn -0.97344 -0 -0.22895
vn -0.99041 -0 -0.13816
vn -0.99893 -0 -0.04618
vn -0 0 1
vn 0.99619 0 0.08716
vn 0.96593 0 0.25882
vn 0.90631 0 0.42262
vn 0.81915 0 0.57358
vn 0.70711 0 0.70711
vn 0.57358 0 0.81915
vn 0.42262 0 0.90631
vn 0.25882 0 0.96593
vn 0.08716 0 0.99619
vn -0.08716 0 0.99619
vn -0.25882 0 0.96593
vn -0.42262 0 0.90631
vn -0.57358 0 0.81915
vn -0.70711 0 0.70711
vn -0.81915 0 0.57358
vn -0.90631 0 0.42262
vn -0.96593 0 0.25882
vn -0.99619 0 0.08716
vn 0 0 1
vn 0 0 1
vn 0.99893 0 -0.04618
vn 0.99041 0 -0.13816
vn 0.97344 0 -0.22895
vn 0.94816 0 -0.31779
vn 0.91479 0 -0.40392
vn 0.87362 0 -0.4866
vn 0.825 0 -0.56514
vn 0.76933 0 -0.63885
vn 0.70711 0 -0.70711
vn 0.63885 0 -0.76933
vn 0.56514 0 -0.825
vn 0.4866 0 -0.87362
vn 0.40392 0 -0.91479
vn 0.31779 0 -0.94816
vn 0.22895 0 -0.97344
vn 0.13816 0 -0.99041
vn 0.04618 0 -0.99893
vn -0 1 0
vn -0 -1 0
f 1//1 2//1 3//1
f 3//1 2//1 4//1
f 1//2 3//2 5//2
f 1//2 5//2 6//2
f 6//3 5//3 7//3
f 6//3 7//3 8//3
f 8//4 7//4 9//4
f 8//4 9//4 10//4
f 10//5 9//5 11//5
f 10//5 11//5 12//5
f 12//6 11//6 13//6
f 12//6 13//6 14//6
f 14//7 13//7 15//7
f 14//7 15//7 16//7
f 16//8 15//8 17//8
f 16//8 17//8 18//8
f 18//9 17//9 19//9
f 18//9 19//9 20//9
f 20//10 19//10 21//10
f 20//10 21//10 22//10
f 22//11 21//11 23//11
f 22//11 23//11 24//11
f 24//12 23//12 25//12
f 24//12 25//12 26//12
f 26//13 25//13 27//13
f 26//13 27//13 28//13
f 28//14 27//14 29//14
f 28//14 29//14 30//14
f 30//15 29//15 31//15
f 30//15 31//15 32//15
f 32//16 31//16 33//16
f 32//16 33//16 34//16
f 34//17 33//17 35//17
f 34//17 35//17 36//17
f 36//18 35//18 37//18
f 36//18 37//18 38//18
f 39//19 38//19 40//19
f 40//19 38//19 37//19
f 39//20 40//20 41//20
f 41//20 40//20 42//20
f 41//21 42//21 43//21
f 43//21 42//21 44//21
f 43//22 44//22 45//22
f 45//22 44//22 46//22
f 45//23 46//23 47//23
f 47//23 46//23 48//23
f 47//24 48//24 49//24
f 49//24 48//24 50//24
f 49//25 50//25 51//25
f 51//25 50//25 52//25
f 51//26 52//26 53//26
f 53//26 52//26 54//26
f 53//27 54//27 55//27
f 55//27 54//27 56//27
f 55//28 56//28 57//28
f 57//28 56//28 58//28
f 57//29 58//29 59//29
f 59//29 58//29 60//29
f 59//30 60//30 61//30
f 61//30 60//30 62//30
f 61//31 62//31 63//31
f 63//31 62//31 64//31
f 63//32 64//32 65//32
f 65//32 64//32 66//32
f 65//33 66//33 67//33
f 67//33 66//33 68//33
f 67//34 68//34 69//34
f 69//34 68//34 70//34
f 69//35 70//35 71//35
f 71//35 70//35 72//35
f 71//36 72//36 73//36
f 73//36 72//36 74//36
f 73//37 74//37 75//37
f 75//37 74//37 76//37
f 77//38 75//38 78//38
f 78//38 75//38 76//38
f 77//20 78//20 79//20
f 79//20 78//20 80//20
f 79//21 80//21 81//21
f 81//21 80//21 82//21
f 81//22 82//22 83//22
f 83//22 82//22 84//22
f 83//23 84//23 85//23
f 85//23 84//23 86//23
f 85//24 86//24 87//24
f 87//24 86//24 88//24
f 87//25 88//25 89//25
f 89//25 88//25 90//25
f 89//26 90//26 91//26
f 91//26 90//26 92//26
f 91//27 92//27 93//27
f 93//27 92//27 94//27
f 93//28 94//28 95//28
f 95//28 94//28 96//28
f 95//29 96//29 97//29
f 97//29 96//29 98//29
f 97//30 98//30 99//30
f 99//30 98//30 100//30
f 99//31 100//31 101//31
f 101//31 100//31 102//31
f 101//32 102//32 103//32
f 103//32 102//32 104//32
f 103//33 104//33 105//33
f 105//33 104//33 106//33
f 105//34 106//34 107//34
f 107//34 106//34 108//34
f 107//35 108//35 109//35
f 109//35 108//35 110//35
f 109//36 110//36 111//36
f 111//36 110//36 112//36
f 111//37 112//37 113//37
f 113//37 112//37 114//37
f 115//39 113//39 116//39
f 116//39 113//39 114//39
f 115//40 116//40 117//40
f 115//40 117//40 118//40
f 118//41 117//41 119//41
f 118//41 119//41 120//41
f 120//42 119//42 121//42
f 120//42 121//42 122//42
f 122//43 121//43 123//43
f 122//43 123//43 124//43
f 124//44 123//44 125//44
f 124//44 125//44 126//44
f 126//45 125//45 127//45
f 126//45 127//45 128//45
f 128//46 127//46 129//46
f 128//46 129//46 130//46
f 130//47 129//47 131//47
f 130//47 131//47 132//47
f 132//48 131//48 133//48
f 132//48 133//48 134//48
f 134//49 133//49 135//49
f 134//49 135//49 136//49
f 136//50 135//50 137//50
f 136//50 137//50 138//50
f 138//51 137//51 139//51
f 138//51 139//51 140//51
f 140//52 139//52 141//52
f 140//52 141//52 142//52
f 142//53 141//53 143//53
f 142//53 143//53 144//53
f 144//54 143//54 145//54
f 144//54 145//54 146//54
f 146//55 145//55 147//55
f 146//55 147//55 148//55
f 148//56 147//56 4//56
f 148//56 4//56 2//56
f 38//57 39//57 36//57
f 36//57 39//57 41//57
f 43//57 32//57 41//57
f 41//57 32//57 34//57
f 41//57 34//57 36//57
f 45//57 28//57 43//57
f 43//57 28//57 30//57
f 43//57 30//57 32//57
f 47//57 24//57 45//57
f 45//57 24//57 26//57
f 45//57 26//57 28//57
f 71//57 126//57 128//57
f 115//57 118//57 113//57
f 113//57 118//57 111//57
f 71//57 128//57 69//57
f 73//57 75//57 77//57
f 118//57 120//57 111//57
f 111//57 120//57 122//57
f 111//57 122//57 109//57
f 109//57 122//57 124//57
f 109//57 124//57 107//57
f 51//57 18//57 49//57
f 49//57 18//57 20//57
f 49//57 20//57 47//57
f 47//57 20//57 22//57
f 47//57 22//57 24//57
f 63//57 65//57 142//57
f 134//57 67//57 132//57
f 132//57 67//57 69//57
f 132//57 69//57 130//57
f 130//57 69//57 128//57
f 101//57 103//57 126//57
f 53//57 14//57 51//57
f 51//57 14//57 16//57
f 51//57 16//57 18//57
f 55//57 10//57 53//57
f 53//57 10//57 12//57
f 53//57 12//57 14//57
f 57//57 6//57 55//57
f 55//57 6//57 8//57
f 55//57 8//57 10//57
f 142//57 144//57 63//57
f 63//57 144//57 146//57
f 63//57 146//57 61//57
f 61//57 146//57 148//57
f 61//57 148//57 59//57
f 59//57 148//57 2//57
f 59//57 2//57 57//57
f 57//57 2//57 1//57
f 57//57 1//57 6//57
f 134//57 136//57 67//57
f 67//57 136//57 138//57
f 67//57 138//57 65//57
f 65//57 138//57 140//57
f 65//57 140//57 142//57
f 126//57 103//57 124//57
f 124//57 103//57 105//57
f 124//57 105//57 107//57
f 85//57 87//57 71//57
f 77//57 79//57 73//57
f 73//57 79//57 81//57
f 73//57 81//57 71//57
f 71//57 81//57 83//57
f 71//57 83//57 85//57
f 95//57 97//57 126//57
f 126//57 97//57 99//57
f 126//57 99//57 101//57
f 87//57 89//57 71//57
f 71//57 89//57 91//57
f 71//57 91//57 126//57
f 126//57 91//57 93//57
f 126//57 93//57 95//57
f 50//58 48//58 21//58
f 116//58 114//58 117//58
f 117//58 114//58 112//58
f 117//58 112//58 119//58
f 119//58 112//58 121//58
f 121//58 112//58 110//58
f 121//58 110//58 123//58
f 125//58 72//58 127//58
f 127//58 72//58 70//58
f 127//58 70//58 129//58
f 21//58 48//58 23//58
f 23//58 48//58 46//58
f 23//58 46//58 25//58
f 25//58 46//58 27//58
f 27//58 46//58 44//58
f 27//58 44//58 29//58
f 29//58 44//58 31//58
f 31//58 44//58 42//58
f 31//58 42//58 33//58
f 33//58 42//58 35//58
f 35//58 42//58 40//58
f 35//58 40//58 37//58
f 78//58 76//58 80//58
f 80//58 76//58 74//58
f 80//58 74//58 82//58
f 82//58 74//58 72//58
f 129//58 70//58 131//58
f 131//58 70//58 68//58
f 131//58 68//58 133//58
f 141//58 66//58 64//58
f 123//58 110//58 125//58
f 125//58 110//58 108//58
f 125//58 108//58 106//58
f 141//58 139//58 66//58
f 66//58 139//58 137//58
f 66//58 137//58 68//58
f 68//58 137//58 135//58
f 68//58 135//58 133//58
f 62//58 145//58 64//58
f 64//58 145//58 143//58
f 64//58 143//58 141//58
f 106//58 104//58 125//58
f 125//58 104//58 102//58
f 125//58 102//58 100//58
f 56//58 5//58 58//58
f 58//58 5//58 3//58
f 58//58 3//58 60//58
f 60//58 3//58 4//58
f 60//58 4//58 62//58
f 62//58 4//58 147//58
f 62//58 147//58 145//58
f 92//58 90//58 72//58
f 72//58 90//58 88//58
f 54//58 9//58 56//58
f 56//58 9//58 7//58
f 56//58 7//58 5//58
f 52//58 13//58 54//58
f 54//58 13//58 11//58
f 54//58 11//58 9//58
f 21//58 19//58 50//58
f 50//58 19//58 17//58
f 50//58 17//58 52//58
f 52//58 17//58 15//58
f 52//58 15//58 13//58
f 100//58 98//58 125//58
f 125//58 98//58 96//58
f 125//58 96//58 72//58
f 72//58 96//58 94//58
f 72//58 94//58 92//58
f 88//58 86//58 72//58
f 72//58 86//58 84//58
f 72//58 84//58 82//58
# Vertices: 148, normals: 58, texture coordinates: 0, faces: 292

